<?xml version="1.0" encoding="utf-8"?>
<!-- Generator: Adobe Illustrator 25.2.1, SVG Export Plug-In . SVG Version: 6.00 Build 0)  -->
<svg version="1.1" id="Слой_1" xmlns="http://www.w3.org/2000/svg" xmlns:xlink="http://www.w3.org/1999/xlink" x="0px" y="0px"
	 viewBox="0 0 274.82 238.47" style="enable-background:new 0 0 274.82 238.47;" xml:space="preserve">
<style type="text/css">
	.st0{fill:#FCFCFC;}
	.st1{fill:url(#SVGID_1_);}
	.st2{fill:#BBD070;}
	.st3{fill:#97A43C;}
	.st4{fill:#48753A;}
	.st5{fill:#DBD8E3;}
	.st6{fill:#323657;}
	.st7{fill:#EEA987;}
	.st8{fill:#E8734D;}
	.st9{fill:#C4C1CC;}
	.st10{fill:#EFAA88;}
	.st11{fill:#EEA886;}
	.st12{fill:#16202E;}
	.st13{fill:#A77860;}
	.st14{fill:#FFC955;}
	.st15{fill:#CFA345;}
</style>
<g>
	<rect class="st0" width="274.82" height="238.47"/>
	<g>
		
			<linearGradient id="SVGID_1_" gradientUnits="userSpaceOnUse" x1="-216.2467" y1="762.6216" x2="-100.9628" y2="762.6216" gradientTransform="matrix(0.9948 -0.1022 0.1022 0.9948 141.5578 -671.2963)">
			<stop  offset="0" style="stop-color:#96CBFF"/>
			<stop  offset="1" style="stop-color:#5599FF"/>
		</linearGradient>
		<path class="st1" d="M106.65,124.66c1.99-4.23,3.33-8.66,4.06-13.16l9.29-2.79l-0.98-10.49l-0.98-10.49l-9.64-1.02
			c-1.54-4.29-3.69-8.39-6.42-12.18l4.59-8.53l-8.11-6.73l-8.11-6.73l-7.54,6.09c-4.23-1.99-8.66-3.33-13.16-4.06l-2.79-9.29
			l-10.49,0.98l-10.49,0.98l-1.02,9.65c-4.29,1.54-8.39,3.69-12.18,6.42l-8.53-4.59l-6.73,8.11l-6.73,8.11l6.09,7.54
			c-1.99,4.23-3.33,8.66-4.06,13.16l-9.29,2.79l0.98,10.49l0.98,10.49l9.64,1.02c1.54,4.29,3.69,8.39,6.42,12.18l-4.59,8.53
			l8.11,6.73l8.11,6.73l7.54-6.09c4.23,1.99,8.66,3.33,13.16,4.06l2.79,9.29l10.49-0.98l10.49-0.98l1.02-9.65
			c4.29-1.54,8.39-3.69,12.18-6.42l8.53,4.59l6.73-8.11l6.73-8.11L106.65,124.66z M45.23,123.45c-10.98-9.11-12.5-25.39-3.39-36.38
			c9.11-10.98,25.39-12.5,36.38-3.4c10.98,9.11,12.5,25.39,3.4,36.38C72.5,131.04,56.21,132.56,45.23,123.45z"/>
		<g>
			<g>
				<g>
					<g>
						<g>
							<path class="st2" d="M152.75,38.77c0,0,9.98,39.75-13.98,50.61c-23.97,10.87-19.38-9.03-19.38-9.03s-9.83-2.73,16.92-17.9
								C148.93,55.31,152.75,38.77,152.75,38.77z"/>
						</g>
					</g>
				</g>
			</g>
			<g>
				<g>
					<g>
						<g>
							<path class="st3" d="M215.52,42.24c0,0,4.91,34.65-40.44,49.62c-45.36,14.98-51.82,33.97-51.82,33.97
								S121.9,49.05,215.52,42.24z"/>
						</g>
					</g>
				</g>
			</g>
			<g>
				<g>
					<g>
						<g>
							<path class="st4" d="M123.06,111.73c-13.45-5.13,18.52-32.66,43.09-31.91c24.57,0.74,41.22,9.84,57.67,5.99
								C223.82,85.81,189.28,137,123.06,111.73z"/>
						</g>
					</g>
				</g>
			</g>
		</g>
		<g>
			<g>
				<g>
					<path class="st5" d="M168.24,134.72c0.77-10.45,1.31-20.22,1.62-29.33c-2.52-1.34-5.55-2.9-7.98-4.05
						c-7.51-3.57-17.96-8.39-24.68-11.47c-3.93-1.81-7.78-3.12-7.78-3.12s-26.82-2.57-29-2.43c-0.69,0.04-4.04,1.21-8.44,2.88
						c-9.51,3.61-27.85,10.96-30.77,13.05c-4.28,3.07-19.6,78.17-20.01,83.27c-0.4,4.95,20.84,11.73,40.5,16.93
						c-0.01,7.61-0.17,18.28-0.34,28.02c-0.03,1.66-0.06,3.3-0.09,4.88h86.04c-0.12-1.67-0.22-3.32-0.3-4.88
						c-0.01-0.21-0.02-0.41-0.03-0.62c-0.33-6.59-1.61-18.41-1.28-29.91c0,0-0.21-12.13,1-17.35
						C166.85,157.55,168.24,134.72,168.24,134.72z M59.14,178.88c0.14-9.78,13.16-27.96,13.16-27.96s0.6-0.26,0.61-0.23
						c0.01,0.01,0.67-0.09,0.67-0.08c0.01,0,2.02-1.92,2.04-1.92c0.48,1.74,4.79,26.3,5.85,40.6
						C69.24,186.88,59.07,183.54,59.14,178.88z"/>
				</g>
			</g>
			<g>
				<g>
					<path class="st6" d="M169.83,228.47c-0.57-4.07-1.1-8.14-1.58-12.13c0-0.02-0.01-0.04-0.01-0.06
						c-0.16-1.33-0.31-2.64-0.46-3.94c-0.01-0.06-0.01-0.13-0.02-0.21c-0.63-5.49-1.15-10.75-1.53-15.58
						c-0.28-3.69-0.03-7.3,0.48-10.83c1.5-24.65,2.24-50.65,2.24-50.65c0.79-10.64,1.24-20.58,1.54-29.85
						c0,0-33.68-15.92-36.73-16.83c0,0,6.39,15,11.18,48.53c1.84,12.88,5.25,34.55,7.73,56.68v0c1.34,11.94,3.85,24.1,5.76,34.86
						c0.29,1.66,0.57,3.29,0.83,4.88h11.27C170.29,231.72,170.06,230.09,169.83,228.47z"/>
				</g>
			</g>
			<g>
				<g>
					<path class="st6" d="M113.76,188.86c1.33-12.47,2.52-24.91,1.95-31.72c-4.65-54.8-17.79-69.31-19.7-71.43
						c-1.47,0.56-7.08,2.67-8.72,3.32c-8.99,3.54-27.31,10.04-29.78,11.81c-4.28,3.07-21.16,81.8-21.67,86.89
						c-0.34,3.44,21.69,10.63,44.17,17.05c-0.21,6.16,0.38,14.85-1.67,23.93c-0.36,1.61-0.89,2.63-0.97,4.76l31.33-0.12
						c0.19-1.62,0.39-3.24,0.59-4.88c0.6-4.9,1.22-9.91,1.84-15.24c9.4,2.43,15.78,4,15.78,4s8.83-14.92,11.39-20.96
						C138.73,195.23,127.37,192.5,113.76,188.86z M73.24,170c-0.3-11.22-0.24-19.05-0.24-19.05c1.11,3.84,2.65,14.83,4,25.75
						C72.45,174.41,73.3,172.26,73.24,170z"/>
				</g>
			</g>
			<g>
				<g>
					<path class="st7" d="M99.03,85.18c0,0,3.41-6.45,2.47-24.75c-0.26-5.07,26.63,12.02,26.63,12.02s-0.09,1.75-0.15,4.11
						c-0.03,0.98-0.05,2.06-0.05,3.16c0,0.31,0,0.61,0,0.92c0,0.5,0.01,1,0.02,1.49c0.01,0.61,0.04,1.22,0.07,1.8
						c0.03,0.66,0.08,1.28,0.14,1.85c0.11,1.11,0.76,3.06,1,3.59C130.38,92.22,109.09,92.38,99.03,85.18z"/>
				</g>
			</g>
			<g>
				<path class="st8" d="M121.57,96.82l4.96,6.66c0,0-2.9,3.89-8.06,1.02L121.57,96.82z"/>
			</g>
			<g>
				<path class="st8" d="M125.2,103.75c0,0,18.16,44.35,14.28,100.68l-5.73,10.39l-6.46-8.85c0,0-1.04-74.82-6.2-102.4L125.2,103.75
					z"/>
			</g>
			<g>
				<path class="st7" d="M126.88,90.61l-5.31,6.21c0,0-8.52-1.65-11.02-6.1C108.05,86.27,126.88,90.61,126.88,90.61z"/>
			</g>
			<g>
				<path class="st9" d="M128.1,85.18c0,0-0.62,4.73-6.52,11.64l6.45,8.66l3.49-17.97L128.1,85.18z"/>
			</g>
			<g>
				<path class="st9" d="M100.65,79.48c0,0,12.31,13.93,20.93,17.33l-4,9.91L97.91,85.04L100.65,79.48z"/>
			</g>
			<g>
				<g>
					<path class="st6" d="M227.24,205.5c0,0-16.35-15.85-27.07-18.49c-4.96-1.22-11.48-8.06-17.69-16.1
						c-2.04-2.65-4.05-5.43-5.96-8.18c0-0.01,0-0.01,0-0.01c-7.61-10.99-13.57-21.52-13.57-21.52s-22.5-26.36-4.44-38.11
						c0,0,7.74-0.17,11.98,2.14c4.36,2.37,13.67,21.79,15.25,25.23c1.58,3.43,18.67,35.38,19.82,36.1c1.15,0.72,3.05,3.34,9.89,7.03
						c8.37,4.51,21.53,17.71,21.53,17.71L227.24,205.5z"/>
				</g>
			</g>
			<g>
				<path class="st10" d="M148.78,223.85c0,0-2.28-0.09-3.26-0.62c0,0-1.71-1.1-2.97-1.8c-0.4-0.22-0.76-0.41-1-0.5
					c-1.01-0.4-3.34-0.98-5.49-2.62c-2.15-1.64-9.16-8.19-9.16-8.19l4.53-6.96l2.09-6.89c0,0,16.34,1.62,18.52,2.92
					c0.21,0.13,0.42,0.26,0.6,0.4c1.74,1.28,2.5,2.96,3.33,3.73c0.3,0.29,3.15,3.33,2.99,4.57c-0.22,1.71-1.07,2.82-2.13,3.34
					c0,0-0.58,3.34-2.3,4.83c0,0-0.43,3.1-3.11,4.34C151.43,220.38,150.64,223.48,148.78,223.85z"/>
			</g>
			<g>
				<path class="st11" d="M122.77,13.21c0,0,29.53-7.12,23.31,30.27c-6.22,37.39-13.3,40.42-31.29,32.97
					C96.8,68.99,98.05,45.08,96.98,33.38C95.9,21.68,113.32,13.76,122.77,13.21z"/>
			</g>
			<g>
				<path class="st11" d="M107.25,39.1c-0.44-3.28-6.96-4.39-7.41,0.55c-0.45,4.94,3.15,13.54,5.61,12.66
					C107.91,51.42,107.86,43.63,107.25,39.1z"/>
			</g>
			<g>
				<path class="st12" d="M98.7,52.49c0,0,0.59-11.76,4.88-12.19c4.29-0.43,5.02,4.29,5.02,4.29l4.34,0.75
					c0,0-1.52-10.28,2.74-12.14c4.26-1.86,27.84,5.26,31.24,2.19c3.39-3.07,1.47-23.94-4.79-26.7c-6.26-2.77-23.53-8.92-35.99-0.22
					c0,0-9.83-0.97-11.17,6.96C93.62,23.38,95.95,46.64,98.7,52.49z"/>
			</g>
			<g>
				<path class="st6" d="M139.1,196.26l-12.19,20.96c0,0-32.3-8.32-39.84-10.45l17.23-20.5C104.3,186.27,129.7,192.07,139.1,196.26z
					"/>
			</g>
			<g>
				<path class="st13" d="M128.02,83.93L128.02,83.93c-15.84-1.61-21.98-13.81-21.98-13.81c9.96,9.87,21.89,9.6,21.89,9.6
					c0,0.31,0,0.61,0,0.92c0,0.5,0.01,1,0.02,1.49C127.96,82.74,127.99,83.35,128.02,83.93z"/>
			</g>
		</g>
		<g>
			<path class="st11" d="M162.02,179.04c18.36,18.9,42.61,42.69,42.61,42.69l9.48-18c0,0-21.54-25.25-36.15-42.11
				C173.49,163.83,165.27,169.06,162.02,179.04z"/>
		</g>
		<g>
			<g>
				<path class="st11" d="M150.68,204.45c0,0,4.94,2.39,6.23,3.45c1.29,1.06,6.52,4.98,7.79,5.9c1.27,0.92-1.91,3.54-11.26-0.51
					C144.09,209.24,150.68,204.45,150.68,204.45z"/>
			</g>
		</g>
		<g>
			<polygon class="st14" points="151.11,150.36 142.5,230.45 255.87,230.45 264.49,150.36 			"/>
		</g>
		<g>
			<path class="st14" d="M262.34,226.75H148.08l8.71-80.97h114.26L262.34,226.75z M149.06,225.87h112.49l8.52-79.2H157.58
				L149.06,225.87z"/>
		</g>
		<g>
			
				<rect x="133.47" y="223.24" transform="matrix(-1 -1.224647e-16 1.224647e-16 -1 285.8846 453.6907)" class="st14" width="18.94" height="7.21"/>
		</g>
		<g>
			<path class="st15" d="M197.2,189.12c-0.91,4.46,1.17,8.65,4.65,9.36c3.48,0.71,7.03-2.33,7.95-6.79
				c0.91-4.46-1.17-8.65-4.65-9.36C201.66,181.62,198.11,184.66,197.2,189.12z"/>
		</g>
	</g>
</g>
</svg>
