<?xml version="1.0" encoding="utf-8"?>
<!-- Generator: Adobe Illustrator 25.2.1, SVG Export Plug-In . SVG Version: 6.00 Build 0)  -->
<svg version="1.1" id="Layer_2" xmlns="http://www.w3.org/2000/svg" xmlns:xlink="http://www.w3.org/1999/xlink" x="0px" y="0px"
	 viewBox="0 0 182.37 132.67" style="enable-background:new 0 0 182.37 132.67;" xml:space="preserve">
<style type="text/css">
	.st0{fill:#AACBEA;}
	.st1{fill:#7A90C9;}
	.st2{enable-background:new    ;}
	.st3{fill:#C7BFCD;}
	.st4{fill:#CCCEDD;}
	.st5{fill:#FAFBFD;}
	.st6{opacity:0.5;fill:#EBE9EB;}
	.st7{fill:#EBE9EB;}
	.st8{fill:#E0DDE1;}
	.st9{fill:#D4CED8;}
	.st10{fill:#F2F2FC;}
	.st11{fill:#F74E3E;}
	.st12{fill:#E43727;}
	.st13{fill:#CF2819;}
	.st14{fill:#F57266;}
	.st15{fill:#C22214;}
	.st16{fill:#FFBFA2;}
	.st17{fill:#FAFAFA;}
	.st18{fill:#2D2331;}
	.st19{fill:#221A25;}
	.st20{fill:#3B2E41;}
	.st21{fill:#F3A984;}
	.st22{fill:#4C3E52;}
	.st23{fill:#F5A783;}
	.st24{fill:#F1F1F1;}
	.st25{fill:#A26749;}
	.st26{clip-path:url(#SVGID_2_);enable-background:new    ;}
	.st27{fill:#893F24;}
	.st28{clip-path:url(#SVGID_4_);enable-background:new    ;}
	.st29{fill:#853A1E;}
	.st30{clip-path:url(#SVGID_6_);enable-background:new    ;}
	.st31{fill:#69240A;}
	.st32{fill:#531904;}
	.st33{clip-path:url(#SVGID_8_);enable-background:new    ;}
	.st34{fill:#AD5D37;}
	.st35{fill:#A4532D;}
	.st36{clip-path:url(#SVGID_10_);enable-background:new    ;}
	.st37{fill:#783016;}
	.st38{fill:#692911;}
	.st39{fill:#E4A42E;}
	.st40{fill:#FFC760;}
	.st41{fill:#FDC04F;}
</style>
<rect x="0.27" class="st0" width="182.1" height="132.67"/>
<g>
	<g>
		<g>
			<polygon class="st1" points="166.05,87.11 93.69,129.16 9.85,80.75 82.21,38.7 			"/>
		</g>
		<g>
			<g>
				<g class="st2">
					<g>
						<polygon class="st3" points="166.05,74.83 166.03,80.53 93.67,122.58 93.69,116.88 						"/>
					</g>
					<g>
						<polygon class="st4" points="93.69,116.88 93.67,122.58 9.83,74.18 9.85,68.47 						"/>
					</g>
					<g>
						<polygon class="st5" points="166.05,74.83 93.69,116.88 9.85,68.47 82.21,26.42 						"/>
					</g>
				</g>
			</g>
			<g>
				<polygon class="st5" points="166.05,74.83 93.69,116.88 9.85,68.47 82.21,26.42 				"/>
			</g>
		</g>
		<g>
			<g>
				<path class="st6" d="M85.79,42.76c5.64,3.26,5.64,8.54,0,11.8s-14.8,3.26-20.44,0c-5.64-3.26-5.64-8.54,0-11.8
					C70.99,39.51,80.14,39.51,85.79,42.76z"/>
				<g>
					<path class="st7" d="M81.37,43.39c4.84,2.7,5,7.16,0.36,9.95s-12.34,2.87-17.18,0.17c-4.84-2.7-5-7.16-0.36-9.95
						C68.84,40.76,76.53,40.69,81.37,43.39z"/>
				</g>
				<path class="st7" d="M64.99,42.07l3.76-0.93c-0.15-0.62,0.11-1.27,0.78-1.8l-3.06-0.66C65.2,39.68,64.71,40.9,64.99,42.07
					L64.99,42.07z"/>
				<g class="st2">
					<path class="st7" d="M60.97,44.64l0.07-0.53c0.04-0.22,0.12-0.52,0.17-0.74l0.16-0.51c0.09-0.23,0.22-0.52,0.31-0.74l0.26-0.48
						c0.14-0.24,0.35-0.54,0.5-0.77l0.35-0.45c0.23-0.26,0.55-0.59,0.8-0.84l0.47-0.41c0.44-0.35,0.5-0.39,1.23-0.86
						c0.24-0.14,0.56-0.31,0.8-0.44l0.65-0.3c0.23-0.1,0.54-0.22,0.78-0.31l0.7-0.23c0.23-0.07,0.54-0.15,0.77-0.21l0.73-0.16
						c0.23-0.04,0.53-0.09,0.76-0.13l0.75-0.09c0.23-0.02,0.53-0.04,0.76-0.06l0.76-0.02c0.23,0,0.53,0.01,0.76,0.01l0.76,0.04
						c0.23,0.02,0.54,0.05,0.77,0.08l0.75,0.11c0.23,0.04,0.54,0.11,0.77,0.15l0.73,0.18c0.24,0.07,0.55,0.17,0.79,0.24l0.7,0.26
						c0.25,0.1,0.57,0.25,0.82,0.36l0.65,0.34c0.33,0.2,0.77,0.47,1.09,0.69l0.53,0.41c0.27,0.23,0.61,0.55,0.86,0.8l0.4,0.45
						c0.17,0.22,0.39,0.52,0.55,0.74l0.3,0.48c0.12,0.21,0.26,0.51,0.36,0.73l0.2,0.51c0.07,0.22,0.16,0.51,0.22,0.72l0.11,0.52
						c0.03,0.22,0.06,0.51,0.09,0.73c0.01,0.16,0.01,0.37,0.02,0.53c0,1.73-1.12,3.46-3.35,4.81c-4.6,2.77-12.22,2.85-17.02,0.17
						c-2.47-1.38-3.71-3.21-3.7-5.05C60.93,45.16,60.96,44.87,60.97,44.64z"/>
					<path class="st8" d="M81.65,50.26c2.23-1.34,3.35-3.08,3.35-4.81c-0.01-0.16-0.01-0.37-0.02-0.53
						c-0.02-0.22-0.05-0.51-0.09-0.73l-0.11-0.52c-0.06-0.22-0.14-0.51-0.22-0.72l-0.2-0.51c-0.11-0.22-0.25-0.51-0.36-0.73
						l-0.3-0.48c-0.16-0.23-0.38-0.53-0.55-0.74l-0.4-0.45c-0.25-0.25-0.6-0.57-0.86-0.8l-0.53-0.41c-0.32-0.21-0.75-0.49-1.09-0.69
						l-0.65-0.34c-0.24-0.11-0.57-0.26-0.82-0.36l-0.7-0.26c-0.24-0.07-0.55-0.18-0.79-0.24l-0.73-0.18
						c-0.23-0.05-0.54-0.11-0.77-0.15l-0.75-0.11c-0.23-0.02-0.54-0.06-0.77-0.08l-0.76-0.04c-0.23,0-0.53-0.01-0.76-0.01
						l-0.76,0.02c-0.23,0.02-0.53,0.04-0.76,0.06l-0.75,0.09c-0.23,0.04-0.53,0.09-0.76,0.13L69,36.82
						c-0.23,0.06-0.54,0.14-0.77,0.21l-0.7,0.23c-0.23,0.09-0.55,0.21-0.78,0.31l-0.65,0.3c-0.24,0.13-0.56,0.3-0.8,0.44
						c0.07-0.04,0.14-0.08,0.21-0.11c0,0,0,0,0,0c7.63-4.03,18.75-0.72,16.46,6.67c-1.25,4.04-5.05,6.91-9.91,7.49
						C75.52,52.53,79.06,51.82,81.65,50.26L81.65,50.26z"/>
					<path class="st9" d="M81.65,50.26c2.23-1.34,3.35-3.08,3.35-4.81c-0.01-0.16-0.01-0.37-0.02-0.53
						c-0.02-0.22-0.05-0.51-0.09-0.73l-0.11-0.52c-0.06-0.22-0.14-0.51-0.22-0.72l-0.2-0.51c-0.11-0.22-0.25-0.51-0.36-0.73
						l-0.3-0.48c-0.16-0.23-0.38-0.53-0.55-0.74l-0.4-0.45c-0.25-0.25-0.6-0.57-0.86-0.8l-0.53-0.41c-0.32-0.21-0.75-0.49-1.09-0.69
						l-0.65-0.34c-0.24-0.11-0.57-0.26-0.82-0.36l-0.7-0.26c-0.24-0.07-0.55-0.18-0.79-0.24l-0.73-0.18
						c-0.23-0.05-0.54-0.11-0.77-0.15l-0.75-0.11c-0.23-0.02-0.54-0.06-0.77-0.08l-0.76-0.04c-0.23,0-0.53-0.01-0.76-0.01
						l-0.76,0.02c-0.23,0.02-0.53,0.04-0.76,0.06c-0.08,0.01-0.19,0.02-0.27,0.03c0.18-0.02,0.42-0.04,0.61-0.06
						c9.97-0.54,14.94,6.35,9.16,12.7c-1.68,1.85-3.76,2.73-4.44,3.01C78.27,51.8,80.13,51.18,81.65,50.26L81.65,50.26z"/>
					<path class="st7" d="M63.39,43.69c-1.88,2.2,2.37,7.23,7.94,6.55c2.8-0.34,4.57-1.94,3.7-2.8c-0.39-0.39-1.66-0.62-1.67-0.62
						c-2.9-0.5-3.84-0.8-4.46-1.01c-1.78-0.58-3.18-1.47-3.7-1.82c-0.51-0.35-0.85-0.48-0.86-0.48
						C63.82,43.35,63.54,43.52,63.39,43.69L63.39,43.69z"/>
					<path class="st7" d="M64.35,45.66c-0.81,1.86,4.28,5.91,8.79,3.8c1.03-0.48,2-1.47,0.26-2.08c-1.34-0.47-2.75-0.6-4.11-0.97
						c-1.2-0.33-2.33-0.86-3.56-1.09C65.04,45.19,64.58,45.14,64.35,45.66L64.35,45.66z"/>
					<path class="st10" d="M66.05,47.12c-0.16,0.84,1.38,1.88,2.27,2.12c3.03,0.81,4.32-0.28,4.38-0.33
						c1.66-1.46-5.64-2.27-5.72-2.26C66.36,46.65,66.1,46.79,66.05,47.12L66.05,47.12z"/>
				</g>
				<g>
					<path class="st3" d="M85.11,49.29l0-0.81c-0.01,1.75-1.13,3.5-3.38,4.85c-1.54,0.93-3.41,1.55-5.4,1.88l0,0.81
						c1.99-0.33,3.86-0.96,5.4-1.88C83.98,52.79,85.1,51.04,85.11,49.29L85.11,49.29z"/>
					<path class="st3" d="M76.32,56.03l0-0.81c-1.39,0.23-2.84,0.31-4.28,0.25l0,0.81C73.48,56.34,74.93,56.26,76.32,56.03
						L76.32,56.03z"/>
					<path class="st3" d="M72.04,56.27l0-0.81c-2.72-0.12-5.38-0.77-7.5-1.95c-1.48-0.82-2.52-1.81-3.12-2.87l0,0.81
						c0.6,1.06,1.64,2.04,3.12,2.87C66.66,55.5,69.33,56.15,72.04,56.27L72.04,56.27z"/>
					<path class="st3" d="M61.42,51.45l0-0.81c-0.41-0.72-0.62-1.48-0.62-2.23l0,0.81C60.8,49.98,61.01,50.73,61.42,51.45
						L61.42,51.45z"/>
				</g>
				<g>
					<path class="st3" d="M85,47.68L85,45.45c0,1.73-1.12,3.46-3.35,4.81c-1.52,0.92-3.38,1.54-5.35,1.86l-0.01,2.22
						c1.97-0.32,3.83-0.95,5.35-1.86C83.88,51.14,84.99,49.41,85,47.68L85,47.68z"/>
					<path class="st3" d="M76.29,54.35l0.01-2.22c-1.38,0.23-2.82,0.31-4.24,0.24l-0.01,2.22C73.48,54.66,74.91,54.57,76.29,54.35
						L76.29,54.35z"/>
					<path class="st3" d="M72.05,54.59l0.01-2.22c-2.69-0.12-5.33-0.77-7.43-1.94c-1.47-0.82-2.5-1.8-3.09-2.84l-0.01,2.22
						c0.6,1.04,1.63,2.02,3.09,2.84C66.73,53.83,69.36,54.47,72.05,54.59L72.05,54.59z"/>
					<path class="st3" d="M61.53,49.81l0.01-2.22c-0.41-0.72-0.61-1.46-0.61-2.21l-0.01,2.22C60.92,48.35,61.13,49.1,61.53,49.81
						L61.53,49.81z"/>
				</g>
				<path class="st7" d="M67.29,36.27L67.29,36.27c0.54-0.32,1.14-0.59,1.78-0.8c2.96-0.97,6.79-0.75,9.37,0.69
					c2.18,1.21,2.9,2.97,2.13,4.54c-0.34,0.7-0.97,1.36-1.9,1.92c-3.02,1.82-8.01,1.87-11.16,0.11
					C64.38,40.98,64.27,38.09,67.29,36.27z"/>
				<g>
					<path class="st3" d="M80.87,39.84l0-0.37c0,1.14-0.73,2.27-2.2,3.15c-1,0.6-2.21,1.01-3.51,1.22l0,0.37
						c1.29-0.21,2.51-0.62,3.51-1.22C80.14,42.11,80.87,40.97,80.87,39.84L80.87,39.84z"/>
					<path class="st3" d="M75.17,44.21l0-0.37c-0.9,0.15-1.85,0.2-2.78,0.16l0,0.37C73.32,44.41,74.26,44.36,75.17,44.21
						L75.17,44.21z"/>
					<path class="st3" d="M72.39,44.37l0-0.37c-1.76-0.08-3.49-0.5-4.87-1.27c-0.96-0.54-1.64-1.18-2.03-1.86l0,0.37
						c0.39,0.69,1.07,1.33,2.03,1.86C68.9,43.87,70.63,44.29,72.39,44.37L72.39,44.37z"/>
					<path class="st3" d="M65.49,41.24l0-0.37c-0.27-0.47-0.4-0.96-0.4-1.45l0,0.37C65.09,40.28,65.22,40.77,65.49,41.24
						L65.49,41.24z"/>
				</g>
				<path class="st8" d="M77.66,39.8c1.01-5.27-2-10.7-0.49-15.95c-0.01,0.02-0.01,0.04-0.02,0.05c-0.15,0.44-0.51,0.87-1.09,1.22
					c-1.61,0.97-4.27,0.99-5.94,0.06c-0.65-0.36-1.06-0.82-1.22-1.3c-0.01-0.02-0.01-0.04-0.02-0.05
					c1.48,5.26-1.56,10.67-0.58,15.95c0.16,0.56,0.63,1.1,1.39,1.53c1.89,1.05,4.89,1.02,6.71-0.07
					C77.09,40.83,77.51,40.33,77.66,39.8L77.66,39.8z"/>
				<path class="st9" d="M72.98,26.51c0.95,1.37,4.09,10.12,0.09,15.57c1.22-0.01,2.43-0.29,3.34-0.84c0.68-0.41,1.1-0.91,1.25-1.44
					c1.01-5.27-2-10.7-0.49-15.95c-0.16,0.5-0.53,0.92-1.11,1.27c-0.97,0.58-2.32,0.82-3.61,0.72c0.09,0.11,0.2,0.25,0.29,0.36
					C72.81,26.3,72.91,26.42,72.98,26.51L72.98,26.51z"/>
				<path class="st7" d="M68.22,35.53c-0.29,4.02,1.52,6.92,3.41,5.43c4-3.15,1.56-14.7-1.5-14.61c-0.53,0.02-0.6,0.47-0.94,2.66
					C68.96,31.18,68.45,33.36,68.22,35.53L68.22,35.53z"/>
				<path class="st7" d="M68.83,33.78c-0.42,3.97,0.82,5.88,2.18,4.87c2.28-1.7,1.48-9.32-0.4-9.83
					C69.45,28.5,68.92,32.9,68.83,33.78L68.83,33.78z"/>
				<g class="st2">
					<path class="st3" d="M80.24,22.55l0-0.49c0,1.04-0.67,2.07-2.01,2.88c-0.91,0.55-2.02,0.92-3.21,1.12l0,0.49
						c1.18-0.19,2.29-0.57,3.21-1.12C79.57,24.63,80.24,23.59,80.24,22.55L80.24,22.55z"/>
					<path class="st3" d="M75.03,26.55l0-0.49c-0.83,0.14-1.69,0.18-2.54,0.15l0,0.49C73.34,26.73,74.2,26.68,75.03,26.55
						L75.03,26.55z"/>
					<path class="st3" d="M72.49,26.69l0-0.49c-1.61-0.07-3.19-0.46-4.45-1.16c-0.88-0.49-1.5-1.08-1.85-1.7l0,0.49
						c0.36,0.63,0.98,1.21,1.85,1.7C69.3,26.23,70.88,26.62,72.49,26.69L72.49,26.69z"/>
					<path class="st3" d="M66.19,23.83l0-0.49c-0.24-0.43-0.37-0.88-0.37-1.32l0,0.49C65.82,22.96,65.94,23.4,66.19,23.83
						L66.19,23.83z"/>
				</g>
				<path class="st7" d="M67.83,19.14c0.04-0.03,0.09-0.05,0.13-0.08c2.77-1.58,7.23-1.6,10.06-0.03c2.47,1.37,2.88,3.52,1.21,5.14
					c-0.28,0.27-0.61,0.52-1,0.76c-2.76,1.66-7.32,1.71-10.19,0.1C65.17,23.44,65.07,20.8,67.83,19.14z"/>
				<path class="st7" d="M79.11,17.86c0,3.36-2.72,6.08-6.08,6.08c-1.92,0-3.64-0.89-4.75-2.28c-0.84-1.04-1.33-2.36-1.33-3.8
					c0-3.36,2.72-6.08,6.08-6.08c1.2,0,2.32,0.35,3.26,0.95C77.99,13.81,79.11,15.7,79.11,17.86z"/>
				<path class="st10" d="M73.32,15.84c0,1.3-1.06,2.36-2.36,2.36c-0.75,0-1.41-0.35-1.85-0.89c-0.32-0.4-0.52-0.92-0.52-1.48
					c0-1.3,1.06-2.36,2.36-2.36c0.47,0,0.9,0.14,1.27,0.37C72.88,14.27,73.32,15,73.32,15.84z"/>
				<path class="st9" d="M76.49,12.87c0.94,1.15,1.45,2.59,1.22,4.21c-0.56,4.46-5.43,5.86-9.53,4.45c0.03,0.04,0.06,0.09,0.1,0.13
					c1.11,1.39,2.83,2.28,4.75,2.28c3.36,0,6.08-2.72,6.08-6.08C79.11,15.79,78.08,13.96,76.49,12.87z"/>
				<path class="st8" d="M76.49,12.87c-0.07-0.05-0.13-0.09-0.2-0.13c-0.19-0.12-0.39-0.23-0.59-0.33c1.71,2.54,0.71,6.19-1.66,8.03
					c-1.97,1.13-3.94,0.95-6.15,0.68c0.09,0.14,0.19,0.28,0.29,0.41c4.1,1.41,8.97,0,9.53-4.45C77.94,15.46,77.43,14.02,76.49,12.87
					z"/>
			</g>
			<g>
				<ellipse class="st6" cx="50.85" cy="67.53" rx="14.45" ry="8.35"/>
				<g>
					<path class="st7" d="M56.65,62.25c4.84,2.7,5,7.16,0.36,9.95c-4.65,2.8-12.34,2.87-17.18,0.17c-4.84-2.7-5-7.16-0.36-9.95
						C44.12,59.63,51.81,59.55,56.65,62.25z"/>
				</g>
				<path class="st7" d="M40.27,60.94l3.76-0.93c-0.15-0.62,0.11-1.27,0.78-1.8l-3.06-0.66C40.48,58.55,39.99,59.77,40.27,60.94
					L40.27,60.94z"/>
				<g class="st2">
					<path class="st7" d="M36.25,63.51l0.07-0.53c0.04-0.22,0.12-0.52,0.17-0.74l0.16-0.51c0.09-0.23,0.22-0.52,0.31-0.74l0.26-0.48
						c0.14-0.24,0.35-0.54,0.5-0.77l0.35-0.45c0.23-0.26,0.55-0.59,0.8-0.84l0.47-0.41c0.44-0.35,0.5-0.39,1.23-0.86
						c0.24-0.14,0.56-0.31,0.8-0.44l0.65-0.3c0.23-0.1,0.54-0.22,0.78-0.31l0.7-0.23c0.23-0.07,0.54-0.15,0.77-0.21l0.73-0.16
						c0.23-0.04,0.53-0.09,0.76-0.13l0.75-0.09c0.23-0.02,0.53-0.04,0.76-0.06l0.76-0.02c0.23,0,0.53,0.01,0.76,0.01l0.76,0.04
						c0.23,0.02,0.54,0.05,0.77,0.08l0.75,0.11c0.23,0.04,0.54,0.11,0.77,0.15l0.73,0.18c0.24,0.07,0.55,0.17,0.79,0.24l0.7,0.26
						c0.25,0.1,0.57,0.25,0.82,0.36L55.56,57c0.33,0.2,0.77,0.47,1.09,0.69l0.53,0.41c0.27,0.23,0.61,0.55,0.86,0.8l0.4,0.45
						c0.17,0.22,0.39,0.52,0.55,0.74l0.3,0.48c0.12,0.21,0.26,0.51,0.36,0.73l0.2,0.51c0.07,0.22,0.16,0.51,0.22,0.72l0.11,0.52
						c0.03,0.22,0.06,0.51,0.09,0.73c0.01,0.16,0.01,0.37,0.02,0.53c0,1.73-1.12,3.46-3.35,4.81c-4.6,2.77-12.22,2.85-17.02,0.17
						c-2.47-1.38-3.71-3.21-3.7-5.05C36.21,64.03,36.24,63.73,36.25,63.51z"/>
					<path class="st8" d="M56.93,69.13c2.23-1.34,3.35-3.08,3.35-4.81c-0.01-0.16-0.01-0.37-0.02-0.53
						c-0.02-0.22-0.05-0.51-0.09-0.73l-0.11-0.52c-0.06-0.22-0.14-0.51-0.22-0.72l-0.2-0.51c-0.1-0.22-0.25-0.51-0.36-0.73
						l-0.3-0.48c-0.16-0.23-0.38-0.53-0.55-0.74l-0.4-0.45c-0.25-0.25-0.6-0.57-0.86-0.8l-0.53-0.41c-0.32-0.21-0.75-0.49-1.09-0.69
						l-0.65-0.34c-0.24-0.11-0.57-0.26-0.82-0.36l-0.7-0.26c-0.24-0.07-0.55-0.18-0.79-0.24l-0.73-0.18
						c-0.23-0.05-0.54-0.11-0.77-0.15l-0.75-0.11c-0.23-0.02-0.54-0.06-0.77-0.08l-0.76-0.04c-0.23,0-0.53-0.01-0.76-0.01
						l-0.76,0.02c-0.23,0.02-0.53,0.04-0.76,0.06l-0.75,0.09c-0.23,0.04-0.53,0.09-0.76,0.13l-0.73,0.16
						c-0.23,0.06-0.54,0.14-0.77,0.21l-0.7,0.23c-0.23,0.09-0.55,0.21-0.78,0.31l-0.65,0.3c-0.24,0.13-0.56,0.3-0.8,0.44
						c0.07-0.04,0.14-0.08,0.21-0.11c0,0,0,0,0,0c7.63-4.03,18.75-0.72,16.46,6.67c-1.25,4.04-5.05,6.91-9.91,7.49
						C50.8,71.39,54.34,70.69,56.93,69.13L56.93,69.13z"/>
					<path class="st9" d="M56.93,69.13c2.23-1.34,3.35-3.08,3.35-4.81c-0.01-0.16-0.01-0.37-0.02-0.53
						c-0.02-0.22-0.05-0.51-0.09-0.73l-0.11-0.52c-0.06-0.22-0.14-0.51-0.22-0.72l-0.2-0.51c-0.1-0.22-0.25-0.51-0.36-0.73
						l-0.3-0.48c-0.16-0.23-0.38-0.53-0.55-0.74l-0.4-0.45c-0.25-0.25-0.6-0.57-0.86-0.8l-0.53-0.41c-0.32-0.21-0.75-0.49-1.09-0.69
						l-0.65-0.34c-0.24-0.11-0.57-0.26-0.82-0.36l-0.7-0.26c-0.24-0.07-0.55-0.18-0.79-0.24l-0.73-0.18
						c-0.23-0.05-0.54-0.11-0.77-0.15l-0.75-0.11c-0.23-0.02-0.54-0.06-0.77-0.08l-0.76-0.04c-0.23,0-0.53-0.01-0.76-0.01
						l-0.76,0.02c-0.23,0.02-0.53,0.04-0.76,0.06c-0.08,0.01-0.19,0.02-0.27,0.03c0.18-0.02,0.42-0.04,0.61-0.06
						c9.97-0.54,14.94,6.35,9.16,12.7c-1.68,1.85-3.76,2.73-4.44,3.01C53.55,70.67,55.41,70.05,56.93,69.13L56.93,69.13z"/>
					<path class="st7" d="M38.67,62.55c-1.88,2.2,2.37,7.23,7.94,6.55c2.8-0.34,4.57-1.94,3.7-2.8c-0.39-0.39-1.66-0.62-1.67-0.62
						c-2.9-0.5-3.84-0.8-4.47-1.01c-1.78-0.58-3.18-1.47-3.7-1.82c-0.51-0.35-0.85-0.48-0.86-0.48
						C39.1,62.21,38.82,62.38,38.67,62.55L38.67,62.55z"/>
					<path class="st7" d="M39.63,64.53c-0.81,1.86,4.28,5.91,8.79,3.8c1.03-0.48,2-1.47,0.26-2.08c-1.34-0.47-2.75-0.6-4.11-0.97
						c-1.2-0.33-2.33-0.86-3.56-1.09C40.32,64.05,39.86,64.01,39.63,64.53L39.63,64.53z"/>
					<path class="st10" d="M41.33,65.98c-0.16,0.84,1.38,1.88,2.27,2.12c3.03,0.81,4.32-0.28,4.38-0.33
						c1.66-1.46-5.64-2.27-5.72-2.26C41.64,65.52,41.38,65.65,41.33,65.98L41.33,65.98z"/>
				</g>
				<g>
					<path class="st3" d="M60.39,68.16l0-0.81c-0.01,1.75-1.13,3.5-3.38,4.85c-1.54,0.93-3.41,1.55-5.4,1.88l0,0.81
						c1.99-0.33,3.86-0.96,5.4-1.88C59.26,71.66,60.38,69.91,60.39,68.16L60.39,68.16z"/>
					<path class="st3" d="M51.6,74.9l0-0.81c-1.39,0.23-2.84,0.31-4.28,0.25l0,0.81C48.76,75.21,50.21,75.12,51.6,74.9L51.6,74.9z"
						/>
					<path class="st3" d="M47.32,75.14l0-0.81c-2.72-0.12-5.38-0.77-7.5-1.95c-1.48-0.82-2.52-1.81-3.12-2.87l0,0.81
						c0.6,1.06,1.64,2.04,3.12,2.87C41.94,74.37,44.61,75.02,47.32,75.14L47.32,75.14z"/>
					<path class="st3" d="M36.7,70.32l0-0.81c-0.41-0.72-0.62-1.48-0.62-2.23l0,0.81C36.08,68.84,36.29,69.6,36.7,70.32L36.7,70.32z
						"/>
				</g>
				<g>
					<path class="st3" d="M60.28,66.54l0.01-2.22c0,1.73-1.12,3.46-3.35,4.81c-1.52,0.92-3.38,1.54-5.35,1.86l-0.01,2.22
						c1.97-0.32,3.83-0.95,5.35-1.86C59.16,70.01,60.27,68.28,60.28,66.54L60.28,66.54z"/>
					<path class="st3" d="M51.57,73.21l0.01-2.22c-1.38,0.23-2.82,0.31-4.24,0.24l-0.01,2.22C48.76,73.52,50.19,73.44,51.57,73.21
						L51.57,73.21z"/>
					<path class="st3" d="M47.33,73.46l0.01-2.22c-2.69-0.12-5.33-0.77-7.43-1.94c-1.47-0.82-2.5-1.8-3.09-2.84l-0.01,2.22
						c0.6,1.04,1.63,2.02,3.09,2.84C42.01,72.69,44.65,73.34,47.33,73.46L47.33,73.46z"/>
					<path class="st3" d="M36.81,68.68l0.01-2.22c-0.41-0.72-0.61-1.46-0.61-2.21l-0.01,2.22C36.2,67.22,36.41,67.97,36.81,68.68
						L36.81,68.68z"/>
				</g>
				<path class="st7" d="M42.57,55.14L42.57,55.14c0.54-0.32,1.14-0.59,1.78-0.8c2.96-0.97,6.79-0.75,9.37,0.69
					c2.18,1.21,2.9,2.97,2.13,4.54c-0.34,0.7-0.97,1.36-1.9,1.92c-3.02,1.82-8.01,1.87-11.16,0.11
					C39.66,59.85,39.55,56.96,42.57,55.14z"/>
				<g>
					<path class="st3" d="M56.15,58.71l0-0.37c0,1.14-0.73,2.27-2.2,3.15c-1,0.6-2.21,1.01-3.51,1.22l0,0.37
						c1.29-0.21,2.51-0.62,3.51-1.22C55.42,60.98,56.15,59.84,56.15,58.71L56.15,58.71z"/>
					<path class="st3" d="M50.45,63.08l0-0.37c-0.9,0.15-1.85,0.2-2.78,0.16l0,0.37C48.6,63.28,49.54,63.23,50.45,63.08L50.45,63.08
						z"/>
					<path class="st3" d="M47.67,63.24l0-0.37c-1.76-0.08-3.49-0.5-4.87-1.27c-0.96-0.54-1.64-1.18-2.03-1.86l0,0.37
						c0.39,0.69,1.07,1.33,2.03,1.86C44.18,62.74,45.91,63.16,47.67,63.24L47.67,63.24z"/>
					<path class="st3" d="M40.77,60.11l0-0.37c-0.27-0.47-0.4-0.96-0.4-1.45l0,0.37C40.37,59.15,40.5,59.64,40.77,60.11L40.77,60.11
						z"/>
				</g>
				<path class="st8" d="M52.94,58.67c1.01-5.27-2-10.7-0.49-15.95c-0.01,0.02-0.01,0.04-0.02,0.05c-0.15,0.44-0.51,0.87-1.09,1.22
					c-1.61,0.97-4.27,0.99-5.94,0.06c-0.65-0.37-1.06-0.82-1.22-1.3c-0.01-0.02-0.01-0.04-0.02-0.05
					c1.48,5.26-1.56,10.67-0.58,15.95c0.16,0.56,0.63,1.1,1.4,1.53c1.89,1.05,4.89,1.02,6.71-0.07
					C52.37,59.7,52.79,59.2,52.94,58.67L52.94,58.67z"/>
				<path class="st9" d="M48.26,45.38c0.95,1.37,4.09,10.12,0.09,15.57c1.22-0.01,2.43-0.29,3.34-0.84c0.68-0.41,1.1-0.91,1.25-1.44
					c1.01-5.27-2-10.7-0.49-15.95c-0.16,0.5-0.53,0.92-1.11,1.27c-0.97,0.58-2.32,0.82-3.61,0.72c0.09,0.11,0.2,0.25,0.29,0.36
					C48.09,45.16,48.19,45.28,48.26,45.38L48.26,45.38z"/>
				<path class="st7" d="M43.5,54.4c-0.29,4.02,1.52,6.92,3.41,5.43c4-3.15,1.56-14.7-1.5-14.61c-0.53,0.02-0.6,0.47-0.94,2.66
					C44.24,50.05,43.73,52.23,43.5,54.4L43.5,54.4z"/>
				<path class="st7" d="M44.11,52.65c-0.42,3.97,0.82,5.88,2.18,4.87c2.28-1.7,1.48-9.32-0.4-9.83
					C44.73,47.37,44.2,51.76,44.11,52.65L44.11,52.65z"/>
				<g class="st2">
					<path class="st3" d="M55.52,41.42l0-0.49c0,1.04-0.67,2.07-2.01,2.88c-0.91,0.55-2.02,0.92-3.21,1.12l0,0.49
						c1.18-0.19,2.29-0.57,3.21-1.12C54.85,43.49,55.52,42.46,55.52,41.42L55.52,41.42z"/>
					<path class="st3" d="M50.31,45.41l0-0.49c-0.83,0.14-1.69,0.18-2.54,0.15l0,0.49C48.62,45.6,49.48,45.55,50.31,45.41
						L50.31,45.41z"/>
					<path class="st3" d="M47.77,45.56l0-0.49c-1.61-0.07-3.19-0.46-4.45-1.16c-0.88-0.49-1.5-1.08-1.85-1.7l0,0.49
						c0.36,0.63,0.98,1.21,1.85,1.7C44.58,45.1,46.16,45.49,47.77,45.56L47.77,45.56z"/>
					<path class="st3" d="M41.47,42.7l0-0.49c-0.24-0.43-0.37-0.88-0.37-1.32l0,0.49C41.1,41.82,41.22,42.27,41.47,42.7L41.47,42.7z
						"/>
				</g>
				<path class="st7" d="M43.11,38c0.04-0.03,0.09-0.05,0.13-0.08c2.77-1.58,7.23-1.6,10.06-0.03c2.47,1.37,2.88,3.52,1.21,5.14
					c-0.28,0.27-0.61,0.52-1,0.76c-2.76,1.66-7.32,1.71-10.19,0.1C40.45,42.31,40.35,39.66,43.11,38z"/>
				<path class="st7" d="M54.39,36.73c0,3.36-2.72,6.08-6.08,6.08c-1.92,0-3.64-0.89-4.75-2.28c-0.84-1.04-1.33-2.36-1.33-3.8
					c0-3.36,2.72-6.08,6.08-6.08c1.2,0,2.32,0.35,3.26,0.95C53.27,32.68,54.39,34.57,54.39,36.73z"/>
				<path class="st10" d="M48.6,34.71c0,1.3-1.06,2.36-2.36,2.36c-0.75,0-1.41-0.35-1.85-0.89c-0.33-0.4-0.52-0.92-0.52-1.48
					c0-1.3,1.06-2.36,2.36-2.36c0.47,0,0.9,0.14,1.27,0.37C48.16,33.13,48.6,33.87,48.6,34.71z"/>
				<path class="st9" d="M51.77,31.74c0.94,1.15,1.45,2.59,1.22,4.21c-0.56,4.46-5.43,5.86-9.53,4.45c0.03,0.04,0.06,0.09,0.1,0.13
					c1.11,1.39,2.83,2.28,4.75,2.28c3.36,0,6.08-2.72,6.08-6.08C54.39,34.66,53.36,32.83,51.77,31.74z"/>
				<path class="st8" d="M51.77,31.74c-0.07-0.05-0.13-0.09-0.2-0.13c-0.19-0.12-0.39-0.23-0.59-0.33c1.72,2.54,0.71,6.19-1.66,8.03
					c-1.97,1.13-3.94,0.95-6.15,0.68c0.09,0.14,0.19,0.28,0.29,0.41c4.1,1.41,8.97,0,9.53-4.45C53.22,34.33,52.71,32.89,51.77,31.74
					z"/>
			</g>
			<g>
				<ellipse class="st6" cx="103.14" cy="68.71" rx="26.12" ry="15.08"/>
				<g>
					<path class="st11" d="M113.63,59.17c8.75,4.88,9.04,12.93,0.64,17.98c-8.4,5.05-22.3,5.19-31.05,0.31
						c-8.75-4.88-9.04-12.93-0.64-17.98C90.98,54.43,104.88,54.29,113.63,59.17z"/>
				</g>
				<path class="st11" d="M84.02,56.79l6.79-1.68c-0.26-1.12,0.2-2.29,1.41-3.25l-5.53-1.2C84.41,52.47,83.53,54.67,84.02,56.79
					L84.02,56.79z"/>
				<g class="st2">
					<path class="st12" d="M76.77,61.44l0.13-0.95c0.08-0.4,0.21-0.93,0.31-1.33l0.3-0.92c0.16-0.41,0.39-0.94,0.57-1.34l0.46-0.87
						c0.26-0.43,0.62-0.98,0.91-1.39l0.64-0.82c0.42-0.47,1-1.07,1.45-1.51l0.85-0.74c0.79-0.63,0.9-0.7,2.23-1.55
						c0.43-0.25,1.01-0.56,1.44-0.8l1.17-0.55c0.42-0.18,0.98-0.39,1.4-0.56l1.27-0.42c0.41-0.12,0.97-0.27,1.38-0.38l1.32-0.29
						c0.41-0.08,0.96-0.16,1.38-0.23l1.36-0.17c0.41-0.04,0.96-0.07,1.38-0.11l1.38-0.04c0.41,0,0.97,0.01,1.38,0.02l1.38,0.08
						c0.42,0.03,0.97,0.1,1.39,0.14l1.36,0.2c0.42,0.07,0.98,0.19,1.4,0.28l1.32,0.33c0.43,0.12,1,0.31,1.43,0.44l1.26,0.47
						c0.45,0.18,1.03,0.45,1.48,0.65l1.17,0.61c0.6,0.35,1.38,0.85,1.96,1.24l0.96,0.73c0.48,0.42,1.1,1,1.56,1.44l0.73,0.82
						c0.31,0.39,0.71,0.93,1,1.34l0.54,0.88c0.21,0.39,0.46,0.91,0.65,1.31l0.36,0.92c0.13,0.39,0.28,0.92,0.39,1.31l0.2,0.94
						c0.06,0.4,0.12,0.93,0.16,1.33c0.01,0.29,0.02,0.67,0.03,0.96c-0.01,3.13-2.02,6.26-6.06,8.69c-8.32,5-22.08,5.14-30.75,0.31
						c-4.46-2.49-6.7-5.81-6.69-9.13C76.7,62.38,76.74,61.84,76.77,61.44z"/>
					<path class="st12" d="M114.14,71.6c4.04-2.43,6.05-5.56,6.06-8.69c-0.01-0.29-0.02-0.67-0.03-0.96
						c-0.04-0.4-0.1-0.93-0.16-1.33l-0.2-0.94c-0.11-0.39-0.26-0.92-0.39-1.31l-0.36-0.92c-0.19-0.4-0.44-0.92-0.65-1.31l-0.54-0.88
						c-0.29-0.41-0.69-0.95-1-1.34l-0.73-0.82c-0.45-0.45-1.08-1.03-1.56-1.44l-0.96-0.73c-0.58-0.39-1.36-0.89-1.96-1.24
						l-1.17-0.61c-0.44-0.2-1.03-0.47-1.48-0.65l-1.26-0.47c-0.43-0.13-1-0.32-1.43-0.44l-1.32-0.33c-0.42-0.08-0.98-0.2-1.4-0.28
						l-1.36-0.2c-0.42-0.04-0.97-0.11-1.39-0.14l-1.38-0.08c-0.41,0-0.97-0.02-1.38-0.02l-1.38,0.04c-0.41,0.03-0.96,0.06-1.38,0.11
						l-1.36,0.17c-0.41,0.07-0.97,0.15-1.38,0.23l-1.32,0.29c-0.42,0.11-0.97,0.25-1.38,0.38l-1.27,0.42
						c-0.42,0.17-0.99,0.38-1.4,0.56l-1.17,0.55c-0.44,0.24-1.02,0.54-1.44,0.8c0.12-0.07,0.25-0.14,0.38-0.19c0,0,0,0,0,0
						c13.79-7.29,33.89-1.31,29.74,12.06c-2.27,7.3-9.13,12.49-17.92,13.53C103.05,75.69,109.46,74.41,114.14,71.6L114.14,71.6z"/>
					<path class="st13" d="M114.14,71.6c4.04-2.43,6.05-5.56,6.06-8.69c-0.01-0.29-0.02-0.67-0.03-0.96
						c-0.04-0.4-0.1-0.93-0.16-1.33l-0.2-0.94c-0.11-0.39-0.26-0.92-0.39-1.31l-0.36-0.92c-0.19-0.4-0.44-0.92-0.65-1.31l-0.54-0.88
						c-0.29-0.41-0.69-0.95-1-1.34l-0.73-0.82c-0.45-0.45-1.08-1.03-1.56-1.44l-0.96-0.73c-0.58-0.39-1.36-0.89-1.96-1.24
						l-1.17-0.61c-0.44-0.2-1.03-0.47-1.48-0.65l-1.26-0.47c-0.43-0.13-1-0.32-1.43-0.44l-1.32-0.33c-0.42-0.08-0.98-0.2-1.4-0.28
						l-1.36-0.2c-0.42-0.04-0.97-0.11-1.39-0.14l-1.38-0.08c-0.41,0-0.97-0.02-1.38-0.02l-1.38,0.04c-0.41,0.03-0.96,0.06-1.38,0.11
						c-0.15,0.02-0.34,0.04-0.48,0.05c0.33-0.03,0.77-0.07,1.1-0.11c18.02-0.97,26.99,11.47,16.56,22.95
						c-3.04,3.35-6.8,4.93-8.03,5.45C108.04,74.38,111.39,73.25,114.14,71.6L114.14,71.6z"/>
					<path class="st11" d="M81.15,59.71c-3.41,3.98,4.28,13.06,14.35,11.84c5.06-0.61,8.25-3.5,6.69-5.06
						c-0.7-0.71-3-1.11-3.02-1.12c-5.24-0.9-6.94-1.45-8.07-1.82c-3.22-1.05-5.75-2.65-6.69-3.29c-0.93-0.63-1.54-0.86-1.55-0.86
						C81.92,59.1,81.41,59.4,81.15,59.71L81.15,59.71z"/>
					<path class="st11" d="M82.88,63.27c-1.46,3.36,7.74,10.68,15.88,6.87c1.86-0.87,3.62-2.66,0.46-3.76
						c-2.41-0.85-4.97-1.09-7.43-1.76c-2.16-0.59-4.21-1.55-6.43-1.97C84.12,62.42,83.28,62.34,82.88,63.27L82.88,63.27z"/>
					<path class="st14" d="M85.95,65.91c-0.3,1.52,2.49,3.39,4.11,3.83c5.48,1.47,7.81-0.51,7.91-0.6c3-2.65-10.19-4.1-10.34-4.09
						C86.51,65.07,86.04,65.32,85.95,65.91L85.95,65.91z"/>
				</g>
				<g>
					<path class="st15" d="M120.38,69.84l0-1.46c-0.01,3.16-2.04,6.32-6.11,8.77c-2.78,1.67-6.16,2.81-9.76,3.4l0,1.46
						c3.6-0.59,6.98-1.73,9.76-3.4C118.34,76.16,120.37,73,120.38,69.84L120.38,69.84z"/>
					<path class="st15" d="M104.51,82.02l0-1.46c-2.52,0.41-5.14,0.56-7.73,0.44l0,1.46C99.37,82.58,101.99,82.43,104.51,82.02
						L104.51,82.02z"/>
					<path class="st15" d="M96.77,82.46l0-1.46c-4.91-0.22-9.72-1.4-13.55-3.53c-2.67-1.49-4.56-3.28-5.64-5.18l0,1.46
						c1.09,1.91,2.97,3.69,5.64,5.18C87.05,81.06,91.87,82.24,96.77,82.46L96.77,82.46z"/>
					<path class="st15" d="M77.58,73.75l0-1.46c-0.74-1.31-1.12-2.67-1.11-4.03l0,1.46C76.46,71.08,76.83,72.44,77.58,73.75
						L77.58,73.75z"/>
				</g>
				<g>
					<path class="st15" d="M120.18,66.92l0.01-4.01c-0.01,3.13-2.02,6.26-6.06,8.69c-2.75,1.66-6.11,2.78-9.67,3.37l-0.01,4.01
						c3.57-0.59,6.92-1.71,9.67-3.37C118.16,73.18,120.17,70.05,120.18,66.92L120.18,66.92z"/>
					<path class="st15" d="M104.46,78.98l0.01-4.01c-2.49,0.41-5.09,0.56-7.66,0.44l-0.01,4.01
						C99.37,79.53,101.96,79.39,104.46,78.98L104.46,78.98z"/>
					<path class="st15" d="M96.8,79.42l0.01-4.01c-4.86-0.22-9.63-1.38-13.42-3.5c-2.65-1.48-4.51-3.25-5.59-5.13l-0.01,4.01
						c1.08,1.89,2.94,3.66,5.59,5.13C87.17,78.04,91.94,79.2,96.8,79.42L96.8,79.42z"/>
					<path class="st15" d="M77.79,70.79l0.01-4.01c-0.74-1.29-1.11-2.64-1.1-3.99l-0.01,4.01C76.68,68.14,77.05,69.49,77.79,70.79
						L77.79,70.79z"/>
				</g>
				<path class="st11" d="M88.19,46.32L88.19,46.32c0.97-0.59,2.06-1.07,3.22-1.45c5.35-1.76,12.27-1.36,16.94,1.25
					c3.93,2.19,5.23,5.37,3.85,8.21c-0.61,1.26-1.76,2.46-3.44,3.47c-5.45,3.28-14.48,3.37-20.16,0.2
					C82.92,54.83,82.73,49.6,88.19,46.32z"/>
				<g>
					<path class="st15" d="M112.73,52.76l0-0.66c-0.01,2.05-1.32,4.1-3.97,5.7c-1.81,1.09-4,1.82-6.34,2.21l0,0.66
						c2.34-0.38,4.54-1.12,6.34-2.21C111.41,56.86,112.73,54.81,112.73,52.76L112.73,52.76z"/>
					<path class="st15" d="M102.42,60.66l0-0.66c-1.63,0.27-3.34,0.37-5.02,0.29l0,0.66C99.09,61.03,100.79,60.93,102.42,60.66
						L102.42,60.66z"/>
					<path class="st15" d="M97.4,60.95l0-0.66c-3.19-0.14-6.31-0.91-8.8-2.29c-1.74-0.97-2.96-2.13-3.66-3.37l0,0.66
						c0.71,1.24,1.93,2.4,3.66,3.37C91.09,60.05,94.21,60.81,97.4,60.95L97.4,60.95z"/>
					<path class="st15" d="M84.94,55.29l0-0.66c-0.48-0.85-0.72-1.73-0.72-2.62l0,0.66C84.21,53.56,84.45,54.45,84.94,55.29
						L84.94,55.29z"/>
				</g>
				<path class="st12" d="M106.93,52.7c1.82-9.52-3.62-19.33-0.89-28.82c-0.01,0.03-0.02,0.06-0.03,0.1
					c-0.27,0.8-0.92,1.57-1.98,2.2c-2.9,1.75-7.71,1.8-10.73,0.11c-1.18-0.66-1.92-1.49-2.2-2.35c-0.01-0.03-0.02-0.06-0.03-0.1
					c2.68,9.5-2.82,19.28-1.05,28.82c0.29,1.02,1.14,2,2.52,2.77c3.42,1.91,8.84,1.85,12.12-0.12
					C105.9,54.55,106.65,53.64,106.93,52.7L106.93,52.7z"/>
				<path class="st13" d="M98.46,28.68c1.71,2.48,7.39,18.28,0.16,28.13c2.2-0.02,4.39-0.53,6.04-1.52c1.23-0.74,1.99-1.65,2.26-2.6
					c1.82-9.52-3.62-19.33-0.89-28.82c-0.3,0.9-0.96,1.67-2.01,2.3c-1.75,1.05-4.19,1.49-6.52,1.3c0.15,0.19,0.36,0.45,0.52,0.65
					C98.16,28.29,98.34,28.5,98.46,28.68L98.46,28.68z"/>
				<path class="st11" d="M89.86,44.97c-0.53,7.27,2.75,12.5,6.17,9.82c7.23-5.69,2.82-26.57-2.71-26.39
					c-0.95,0.03-1.08,0.85-1.7,4.81C91.21,37.12,90.28,41.05,89.86,44.97L89.86,44.97z"/>
				<path class="st11" d="M90.96,41.81c-0.77,7.18,1.48,10.62,3.93,8.8c4.12-3.07,2.67-16.84-0.72-17.77
					C92.09,32.26,91.13,40.21,90.96,41.81L90.96,41.81z"/>
				<g class="st2">
					<path class="st15" d="M111.59,21.52l0-0.89c-0.01,1.87-1.21,3.75-3.63,5.2c-1.65,0.99-3.66,1.67-5.79,2.02l0,0.89
						c2.14-0.35,4.14-1.02,5.79-2.02C110.38,25.27,111.58,23.39,111.59,21.52L111.59,21.52z"/>
					<path class="st15" d="M102.17,28.74l0-0.89c-1.49,0.25-3.05,0.33-4.59,0.26l0,0.89C99.12,29.07,100.68,28.98,102.17,28.74
						L102.17,28.74z"/>
					<path class="st15" d="M97.58,29l0-0.89c-2.91-0.13-5.77-0.83-8.04-2.09c-1.59-0.88-2.7-1.94-3.35-3.08l0,0.89
						c0.65,1.13,1.76,2.19,3.35,3.08C91.81,28.17,94.67,28.87,97.58,29L97.58,29z"/>
					<path class="st15" d="M86.19,23.83l0-0.89c-0.44-0.77-0.66-1.58-0.66-2.39l0,0.89C85.53,22.25,85.75,23.06,86.19,23.83
						L86.19,23.83z"/>
				</g>
				<path class="st11" d="M89.16,15.35c0.08-0.05,0.16-0.09,0.24-0.14c5-2.86,13.07-2.9,18.18-0.05c4.45,2.48,5.21,6.35,2.19,9.3
					c-0.5,0.49-1.1,0.95-1.81,1.37c-4.98,3-13.23,3.08-18.42,0.19C84.35,23.12,84.18,18.35,89.16,15.35z"/>
				<path class="st11" d="M109.56,13.04c0,6.07-4.92,10.99-10.99,10.99c-3.48,0-6.57-1.61-8.58-4.13c-1.51-1.88-2.41-4.26-2.41-6.86
					c0-6.07,4.92-10.99,10.99-10.99c2.17,0,4.19,0.63,5.9,1.72C107.52,5.72,109.56,9.14,109.56,13.04z"/>
				<path class="st14" d="M99.08,9.39c0,2.36-1.91,4.27-4.27,4.27c-1.35,0-2.55-0.63-3.34-1.6c-0.59-0.73-0.94-1.66-0.94-2.67
					c0-2.36,1.91-4.27,4.27-4.27c0.84,0,1.63,0.24,2.29,0.67C98.29,6.55,99.08,7.88,99.08,9.39z"/>
				<path class="st13" d="M104.82,4.02c1.7,2.08,2.62,4.68,2.2,7.6c-1.01,8.05-9.82,10.59-17.22,8.04c0.06,0.08,0.12,0.16,0.18,0.24
					c2.01,2.52,5.11,4.13,8.58,4.13c6.07,0,10.99-4.92,10.99-10.99C109.56,9.3,107.68,6,104.82,4.02z"/>
				<path class="st11" d="M104.82,4.02c-0.12-0.08-0.23-0.16-0.36-0.24c-0.34-0.22-0.7-0.41-1.07-0.6
					c3.1,4.59,1.28,11.18-2.99,14.51c-3.56,2.03-7.12,1.72-11.12,1.23c0.16,0.26,0.34,0.51,0.52,0.75
					c7.4,2.55,16.21,0.01,17.22-8.04C107.44,8.7,106.52,6.1,104.82,4.02z"/>
			</g>
			<g>
				<path class="st6" d="M102.09,88.87c5.64,3.26,5.64,8.54,0,11.8c-5.64,3.26-14.8,3.26-20.44,0c-5.64-3.26-5.64-8.54,0-11.8
					C87.29,85.61,96.44,85.61,102.09,88.87z"/>
				<g>
					<path class="st7" d="M97.67,89.49c4.84,2.7,5,7.16,0.36,9.95c-4.65,2.8-12.34,2.87-17.18,0.17c-4.84-2.7-5-7.16-0.36-9.95
						C85.14,86.87,92.83,86.79,97.67,89.49z"/>
				</g>
				<path class="st7" d="M81.29,88.17l3.76-0.93c-0.15-0.62,0.11-1.27,0.78-1.8l-3.06-0.66C81.5,85.78,81.01,87,81.29,88.17
					L81.29,88.17z"/>
				<g class="st2">
					<path class="st7" d="M77.27,90.75l0.07-0.53c0.04-0.22,0.12-0.52,0.17-0.74l0.16-0.51c0.09-0.23,0.22-0.52,0.31-0.74l0.26-0.48
						c0.14-0.24,0.35-0.54,0.5-0.77l0.35-0.45c0.23-0.26,0.55-0.59,0.8-0.84l0.47-0.41c0.44-0.35,0.5-0.39,1.23-0.86
						c0.24-0.14,0.56-0.31,0.8-0.44l0.65-0.3c0.23-0.1,0.54-0.22,0.78-0.31l0.7-0.23c0.23-0.07,0.54-0.15,0.77-0.21l0.73-0.16
						c0.23-0.04,0.53-0.09,0.76-0.13l0.75-0.09c0.23-0.02,0.53-0.04,0.76-0.06l0.76-0.02c0.23,0,0.53,0.01,0.76,0.01l0.76,0.04
						c0.23,0.02,0.54,0.05,0.77,0.08l0.75,0.11c0.23,0.04,0.54,0.11,0.77,0.15l0.73,0.18c0.24,0.07,0.55,0.17,0.79,0.24l0.7,0.26
						c0.25,0.1,0.57,0.25,0.82,0.36l0.65,0.34c0.33,0.2,0.77,0.47,1.09,0.69l0.53,0.41c0.27,0.23,0.61,0.55,0.86,0.8l0.4,0.45
						c0.17,0.22,0.39,0.52,0.55,0.74l0.3,0.48c0.12,0.21,0.26,0.51,0.36,0.73l0.2,0.51c0.07,0.21,0.16,0.51,0.22,0.72l0.11,0.52
						c0.03,0.22,0.06,0.51,0.09,0.73c0.01,0.16,0.01,0.37,0.02,0.53c0,1.73-1.12,3.46-3.35,4.81c-4.6,2.77-12.22,2.85-17.02,0.17
						c-2.47-1.38-3.71-3.21-3.7-5.05C77.24,91.27,77.26,90.97,77.27,90.75z"/>
					<path class="st8" d="M97.95,96.37c2.23-1.34,3.35-3.08,3.35-4.81c-0.01-0.16-0.01-0.37-0.02-0.53
						c-0.02-0.22-0.05-0.51-0.09-0.73l-0.11-0.52c-0.06-0.22-0.14-0.51-0.22-0.72l-0.2-0.51c-0.1-0.22-0.25-0.51-0.36-0.73
						l-0.3-0.48c-0.16-0.23-0.38-0.53-0.55-0.74l-0.4-0.45c-0.25-0.25-0.6-0.57-0.86-0.8l-0.53-0.41c-0.32-0.21-0.75-0.49-1.09-0.69
						l-0.65-0.34c-0.24-0.11-0.57-0.26-0.82-0.36l-0.7-0.26c-0.24-0.07-0.55-0.18-0.79-0.24l-0.73-0.18
						c-0.23-0.05-0.54-0.11-0.77-0.15l-0.75-0.11c-0.23-0.02-0.54-0.06-0.77-0.08l-0.76-0.04c-0.23,0-0.53-0.01-0.76-0.01
						l-0.76,0.02c-0.23,0.02-0.53,0.04-0.76,0.06l-0.75,0.09c-0.23,0.04-0.53,0.09-0.76,0.13l-0.73,0.16
						c-0.23,0.06-0.54,0.14-0.77,0.21l-0.7,0.23c-0.23,0.09-0.55,0.21-0.78,0.31l-0.65,0.3c-0.24,0.13-0.56,0.3-0.8,0.44
						c0.07-0.04,0.14-0.08,0.21-0.11c0,0,0,0,0,0c7.63-4.03,18.75-0.72,16.46,6.67c-1.25,4.04-5.05,6.91-9.91,7.49
						C91.82,98.63,95.36,97.93,97.95,96.37L97.95,96.37z"/>
					<path class="st9" d="M97.95,96.37c2.23-1.34,3.35-3.08,3.35-4.81c-0.01-0.16-0.01-0.37-0.02-0.53
						c-0.02-0.22-0.05-0.51-0.09-0.73l-0.11-0.52c-0.06-0.22-0.14-0.51-0.22-0.72l-0.2-0.51c-0.1-0.22-0.25-0.51-0.36-0.73
						l-0.3-0.48c-0.16-0.23-0.38-0.53-0.55-0.74l-0.4-0.45c-0.25-0.25-0.6-0.57-0.86-0.8l-0.53-0.41c-0.32-0.21-0.75-0.49-1.09-0.69
						l-0.65-0.34c-0.24-0.11-0.57-0.26-0.82-0.36l-0.7-0.26c-0.24-0.07-0.55-0.18-0.79-0.24l-0.73-0.18
						c-0.23-0.05-0.54-0.11-0.77-0.15l-0.75-0.11c-0.23-0.02-0.54-0.06-0.77-0.08l-0.76-0.04c-0.23,0-0.53-0.01-0.76-0.01
						l-0.76,0.02c-0.23,0.02-0.53,0.04-0.76,0.06c-0.08,0.01-0.19,0.02-0.27,0.03c0.18-0.02,0.42-0.04,0.61-0.06
						c9.97-0.54,14.94,6.35,9.16,12.7c-1.68,1.85-3.76,2.73-4.44,3.01C94.57,97.91,96.43,97.28,97.95,96.37L97.95,96.37z"/>
					<path class="st7" d="M79.69,89.79c-1.88,2.2,2.37,7.23,7.94,6.55c2.8-0.34,4.57-1.94,3.7-2.8c-0.39-0.39-1.66-0.62-1.67-0.62
						c-2.9-0.5-3.84-0.8-4.47-1.01c-1.78-0.58-3.18-1.47-3.7-1.82c-0.51-0.35-0.85-0.48-0.86-0.48
						C80.12,89.45,79.84,89.62,79.69,89.79L79.69,89.79z"/>
					<path class="st7" d="M80.65,91.76c-0.81,1.86,4.28,5.91,8.79,3.8c1.03-0.48,2-1.47,0.26-2.08c-1.34-0.47-2.75-0.6-4.11-0.97
						c-1.2-0.33-2.33-0.86-3.56-1.09C81.34,91.29,80.88,91.24,80.65,91.76L80.65,91.76z"/>
					<path class="st10" d="M82.35,93.22c-0.16,0.84,1.38,1.88,2.27,2.12c3.03,0.81,4.32-0.28,4.38-0.33
						c1.66-1.46-5.64-2.27-5.72-2.26C82.66,92.76,82.4,92.89,82.35,93.22L82.35,93.22z"/>
				</g>
				<g>
					<path class="st3" d="M101.41,95.4l0-0.81c-0.01,1.75-1.13,3.5-3.38,4.85c-1.54,0.93-3.41,1.55-5.4,1.88l0,0.81
						c1.99-0.33,3.86-0.96,5.4-1.88C100.28,98.89,101.4,97.15,101.41,95.4L101.41,95.4z"/>
					<path class="st3" d="M92.62,102.13l0-0.81c-1.39,0.23-2.84,0.31-4.28,0.25l0,0.81C89.78,102.44,91.23,102.36,92.62,102.13
						L92.62,102.13z"/>
					<path class="st3" d="M88.34,102.38l0-0.81c-2.72-0.12-5.38-0.77-7.5-1.95c-1.48-0.82-2.52-1.81-3.12-2.87l0,0.81
						c0.6,1.06,1.64,2.04,3.12,2.87C82.96,101.61,85.63,102.26,88.34,102.38L88.34,102.38z"/>
					<path class="st3" d="M77.72,97.56l0-0.81c-0.41-0.72-0.62-1.48-0.62-2.23l0,0.81C77.1,96.08,77.31,96.83,77.72,97.56
						L77.72,97.56z"/>
				</g>
				<g>
					<path class="st3" d="M101.3,93.78l0.01-2.22c0,1.73-1.12,3.46-3.35,4.81c-1.52,0.92-3.38,1.54-5.35,1.86l-0.01,2.22
						c1.97-0.32,3.83-0.95,5.35-1.86C100.18,97.24,101.29,95.51,101.3,93.78L101.3,93.78z"/>
					<path class="st3" d="M92.59,100.45l0.01-2.22c-1.38,0.23-2.82,0.31-4.24,0.24l-0.01,2.22
						C89.78,100.76,91.21,100.68,92.59,100.45L92.59,100.45z"/>
					<path class="st3" d="M88.36,100.7l0.01-2.22c-2.69-0.12-5.33-0.77-7.43-1.94c-1.47-0.82-2.5-1.8-3.09-2.84l-0.01,2.22
						c0.6,1.04,1.63,2.02,3.09,2.84C83.03,99.93,85.67,100.57,88.36,100.7L88.36,100.7z"/>
					<path class="st3" d="M77.83,95.92l0.01-2.22c-0.41-0.72-0.61-1.46-0.61-2.21l-0.01,2.22C77.22,94.46,77.43,95.2,77.83,95.92
						L77.83,95.92z"/>
				</g>
				<path class="st7" d="M83.59,82.38L83.59,82.38c0.54-0.32,1.14-0.59,1.78-0.8c2.96-0.97,6.79-0.75,9.37,0.69
					c2.18,1.21,2.9,2.97,2.13,4.54c-0.34,0.7-0.97,1.36-1.9,1.92c-3.02,1.82-8.01,1.87-11.16,0.11
					C80.68,87.09,80.57,84.2,83.59,82.38z"/>
				<g>
					<path class="st3" d="M97.17,85.94l0-0.37c0,1.14-0.73,2.27-2.2,3.15c-1,0.6-2.21,1.01-3.51,1.22l0,0.37
						c1.29-0.21,2.51-0.62,3.51-1.22C96.44,88.21,97.17,87.08,97.17,85.94L97.17,85.94z"/>
					<path class="st3" d="M91.47,90.32l0-0.37c-0.9,0.15-1.85,0.2-2.78,0.16l0,0.37C89.62,90.52,90.56,90.47,91.47,90.32
						L91.47,90.32z"/>
					<path class="st3" d="M88.69,90.48l0-0.37c-1.76-0.08-3.49-0.5-4.87-1.27c-0.96-0.54-1.64-1.18-2.03-1.86l0,0.37
						c0.39,0.69,1.07,1.33,2.03,1.86C85.2,89.98,86.93,90.4,88.69,90.48L88.69,90.48z"/>
					<path class="st3" d="M81.79,87.35l0-0.37c-0.27-0.47-0.4-0.96-0.4-1.45l0,0.37C81.39,86.39,81.53,86.88,81.79,87.35
						L81.79,87.35z"/>
				</g>
				<path class="st8" d="M93.96,85.91c1.01-5.27-2-10.7-0.49-15.95c-0.01,0.02-0.01,0.04-0.02,0.05c-0.15,0.44-0.51,0.87-1.09,1.22
					c-1.61,0.97-4.27,0.99-5.94,0.06c-0.65-0.36-1.06-0.82-1.22-1.3c-0.01-0.02-0.01-0.04-0.02-0.05
					c1.48,5.26-1.56,10.67-0.58,15.95c0.16,0.56,0.63,1.1,1.39,1.53c1.89,1.05,4.89,1.02,6.71-0.07
					C93.39,86.94,93.81,86.43,93.96,85.91L93.96,85.91z"/>
				<path class="st9" d="M89.28,72.62c0.95,1.37,4.09,10.12,0.09,15.57c1.22-0.01,2.43-0.29,3.34-0.84c0.68-0.41,1.1-0.91,1.25-1.44
					c1.01-5.27-2-10.7-0.49-15.95c-0.16,0.5-0.53,0.92-1.11,1.27c-0.97,0.58-2.32,0.82-3.61,0.72c0.09,0.11,0.2,0.25,0.29,0.36
					C89.11,72.4,89.21,72.52,89.28,72.62L89.28,72.62z"/>
				<path class="st7" d="M84.52,81.63c-0.29,4.02,1.52,6.92,3.41,5.43c4-3.15,1.56-14.7-1.5-14.61c-0.53,0.02-0.6,0.47-0.94,2.66
					C85.26,77.29,84.75,79.47,84.52,81.63L84.52,81.63z"/>
				<path class="st7" d="M85.13,79.89c-0.42,3.97,0.82,5.88,2.18,4.87c2.28-1.7,1.48-9.32-0.4-9.83C85.75,74.6,85.22,79,85.13,79.89
					L85.13,79.89z"/>
				<g class="st2">
					<path class="st3" d="M96.54,68.66l0-0.49c0,1.04-0.67,2.07-2.01,2.88c-0.91,0.55-2.02,0.92-3.21,1.12l0,0.49
						c1.18-0.19,2.29-0.57,3.21-1.12C95.87,70.73,96.54,69.69,96.54,68.66L96.54,68.66z"/>
					<path class="st3" d="M91.33,72.65l0-0.49c-0.83,0.14-1.69,0.18-2.54,0.15l0,0.49C89.64,72.84,90.5,72.79,91.33,72.65
						L91.33,72.65z"/>
					<path class="st3" d="M88.79,72.8l0-0.49c-1.61-0.07-3.19-0.46-4.45-1.16c-0.88-0.49-1.5-1.08-1.85-1.7l0,0.49
						c0.36,0.63,0.98,1.21,1.85,1.7C85.6,72.34,87.18,72.73,88.79,72.8L88.79,72.8z"/>
					<path class="st3" d="M82.49,69.94l0-0.49c-0.24-0.43-0.37-0.88-0.37-1.32l0,0.49C82.12,69.06,82.24,69.51,82.49,69.94
						L82.49,69.94z"/>
				</g>
				<path class="st7" d="M84.13,65.24c0.04-0.03,0.09-0.05,0.13-0.08c2.77-1.58,7.23-1.6,10.06-0.03c2.46,1.37,2.88,3.52,1.21,5.14
					c-0.28,0.27-0.61,0.52-1,0.76c-2.76,1.66-7.32,1.71-10.19,0.1C81.47,69.54,81.38,66.9,84.13,65.24z"/>
				<path class="st7" d="M95.42,63.97c0,3.36-2.72,6.08-6.08,6.08c-1.92,0-3.64-0.89-4.75-2.28c-0.84-1.04-1.33-2.36-1.33-3.8
					c0-3.36,2.72-6.08,6.08-6.08c1.2,0,2.32,0.35,3.26,0.95C94.29,59.92,95.42,61.81,95.42,63.97z"/>
				<path class="st10" d="M89.62,61.95c0,1.3-1.06,2.36-2.36,2.36c-0.75,0-1.41-0.35-1.85-0.89c-0.32-0.4-0.52-0.92-0.52-1.48
					c0-1.3,1.06-2.36,2.36-2.36c0.47,0,0.9,0.14,1.27,0.37C89.18,60.37,89.62,61.11,89.62,61.95z"/>
				<path class="st9" d="M92.79,58.97c0.94,1.15,1.45,2.59,1.22,4.21c-0.56,4.46-5.43,5.86-9.53,4.45c0.03,0.04,0.06,0.09,0.1,0.13
					c1.11,1.39,2.83,2.28,4.75,2.28c3.36,0,6.08-2.72,6.08-6.08C95.42,61.89,94.38,60.07,92.79,58.97z"/>
				<path class="st8" d="M92.79,58.97c-0.07-0.05-0.13-0.09-0.2-0.13c-0.19-0.12-0.39-0.23-0.59-0.33c1.72,2.54,0.71,6.19-1.66,8.03
					c-1.97,1.13-3.94,0.95-6.15,0.68c0.09,0.14,0.19,0.28,0.29,0.41c4.1,1.41,8.97,0,9.53-4.45C94.24,61.56,93.73,60.12,92.79,58.97
					z"/>
			</g>
			<g id="lawyer_2_">
				<g>
					<g>
						<path class="st16" d="M126.27,58.88c0.01,1.07,0.01,2.15-0.11,3.21c-0.07,0.6-0.19,1.23-0.58,1.7
							c-0.1,0.12-0.23,0.23-0.38,0.28c-0.15,0.05-0.33,0.03-0.45-0.07c-0.12-0.11-0.15-0.29-0.17-0.45
							c-0.24-1.79-0.17-3.61,0.2-5.38L126.27,58.88z"/>
						<path class="st17" d="M123.5,58.51c-0.01,0.34-0.02,0.71,0.18,0.99c0.18,0.25,0.48,0.37,0.78,0.47
							c0.46,0.15,0.94,0.26,1.41,0.18c0.16-0.03,0.32-0.09,0.41-0.22c0.07-0.09,0.09-0.21,0.1-0.33c0.03-0.23,0.05-0.46,0.05-0.69
							c0-0.19-0.02-0.41-0.15-0.55c-0.13-0.13-0.33-0.16-0.52-0.18c-0.48-0.04-0.97-0.05-1.45-0.03c-0.22,0.01-0.46,0.04-0.63,0.17
							L123.5,58.51z"/>
						<path class="st18" d="M123.56,59.47c0.37,0.19,1.49,0.41,2.46,0.11c0.6-0.18,0.51-0.41,0.55-1.58
							c0.09-2.51-0.11,1.55,0.08-2.22c0.01-0.16,0.03-0.32,0.02-0.48c0-0.12-0.03-0.22-0.02-0.34c0.01-0.32,0.02-0.64,0.03-0.96
							c0.02-1.27-0.01-2.55-0.04-3.82c-0.02-0.67-0.14-2.9-0.23-3.92c-0.1-1.15-4.04,0.84-3.97,1.57c0.08,0.82,0.44,5.04,0.44,5.86
							C122.89,58.55,122.92,59.14,123.56,59.47z"/>
						<path class="st18" d="M124.91,51.52c1.4-0.09,1.71-1.76,1.66-2.82c-0.08-1.61,0.01-4.89-0.48-8.16
							c-0.1-0.7-0.47-1.89-0.82-2.51c-0.93-1.65-2.92-1.87-3.68-0.53c-0.53,0.94,0.03,4.6,0.22,5.66c0.15,0.82,0.24,1.65,0.37,2.47
							c0.12,0.73,0.25,1.46,0.4,2.18c0.15,0.75,0.25,1.58,0.58,2.28c0.16,0.35,0.38,0.69,0.68,0.95
							C124.25,51.4,124.61,51.54,124.91,51.52z"/>
						<g>
							<path class="st19" d="M117.2,86.56c1.28,1.34,2.41,2.8,3.54,4.27c0.32,0.42,0.65,0.84,0.9,1.31
								c0.21,0.38,0.48,0.89,0.36,1.33c-0.16,0.57-1.44,0.57-1.91,0.55c-0.67-0.04-1.26-0.21-1.84-0.54
								c-0.56-0.32-0.85-0.75-1.08-1.36c-0.2-0.54-0.39-1.13-0.83-1.51c-0.41-0.35-1.04-0.49-1.27-0.98
								c-0.12-0.25-0.11-0.54-0.08-0.82c0.06-0.52,0.26-1.02,0.32-1.53c0.04-0.38,0.01-0.8,0.17-1.15c0.14-0.3,0.56-0.45,0.87-0.43
								c0.35,0.03,0.68,0.22,0.91,0.48L117.2,86.56z"/>
							<path class="st19" d="M121.94,84.25c1.67,0.8,3.24,1.78,4.81,2.75c0.45,0.28,0.9,0.56,1.3,0.91c0.33,0.28,0.76,0.67,0.8,1.12
								c0.05,0.59-1.14,1.04-1.6,1.19c-0.64,0.2-1.25,0.25-1.91,0.14c-0.64-0.1-1.06-0.41-1.49-0.89c-0.38-0.44-0.76-0.92-1.31-1.12
								c-0.51-0.18-1.14-0.1-1.54-0.47c-0.2-0.19-0.29-0.47-0.36-0.74c-0.13-0.51-0.11-1.05-0.24-1.54
								c-0.09-0.37-0.27-0.75-0.25-1.14c0.02-0.33,0.36-0.62,0.67-0.7c0.34-0.1,0.71-0.03,1.02,0.13L121.94,84.25z"/>
							<path class="st18" d="M125.48,62.72c-0.39,3.12,0.08,12.21-2.96,11.42c-0.95-0.25-2.62-1.91-2.78-3.98
								c-0.09-1.12-0.04-2.71-0.11-3.82c-0.14-2.31-1.81-8.26,2.89-9.72c0.71-0.22,1.15-3.1,1.75-2.61c0.2,0.16,0.89,1.75,1.21,3.98
								C125.68,59.38,125.7,61,125.48,62.72z"/>
							<path class="st18" d="M123.94,85.35c-0.11,0.66-0.51,1.38-2.75,1.31c-0.61-0.02-0.96-1.79-1.07-2.26
								c-0.44-2.04-0.1-4.46-0.26-6.55c-0.25-3.31,0.29-4.29,0.42-5.82c0.05-0.63-0.05-1.32,0.3-1.85c0.85-1.28,3.04-0.28,3.66,1.21
								c0.25,0.62,0.16,0.9,0.06,1.54C123.85,75.66,123.95,85.32,123.94,85.35z"/>
							<path class="st20" d="M120.23,71.77c0.01,0.7-0.02,1.41-0.05,2.12c-0.05,1.14-0.11,2.28-0.17,3.41
								c-0.35,6.38-0.29,9.63-0.79,10.97c-0.41,1.11-1.87,1.05-2.82,0.76c-0.42-0.13-0.81-0.36-1.06-0.72
								c-0.24-0.35-0.32-0.78-0.39-1.2c-0.66-4.05-0.55-8.09,0.33-12.09c0.21-0.94,0.47-1.91,0.99-2.73
								c0.18-0.29,1.37,1.62,1.67,1.44c0.32-0.19-0.43-0.73-0.06-0.71c0.7,0.04,1.39,0.36,1.87,0.87L120.23,71.77z"/>
							<path class="st20" d="M114.5,55.37C114.5,55.37,114.5,55.37,114.5,55.37L114.5,55.37L114.5,55.37L114.5,55.37
								c0.01,0,0.02,0,0.02,0.01c1.04,0.5,2.66,0.95,3.88,1.07c2.64,0.26,4.49-0.73,6.2-1.92c0.38,1.81,0.46,3.38,0.48,3.78
								c0.12,2.08-3.76,3.14-3.82,4.24c-0.13,2.55-0.36,7.57-0.69,10.1c-0.13,0.98-0.29,1.99-0.8,2.84
								c-0.59,0.99-1.64,1.54-2.79,1.46c-0.3-0.02-0.6-0.11-0.82-0.3c-0.52-0.45-1.06-0.32-1.01-1.01c0.16-2.01-0.16-4.82-0.63-6.77
								C113.59,64.9,112.88,60.3,114.5,55.37z"/>
							<path class="st21" d="M115,52.2L115,52.2c0.09,0.66,0.15,1.32,0.17,1.98C115.13,53.52,115.08,52.86,115,52.2z"/>
							<path class="st21" d="M115.17,54.18c0.02,0.4,0.03,0.8,0.03,1.21c-0.01,0-0.02-0.01-0.02-0.01
								C115.18,54.98,115.18,54.58,115.17,54.18z"/>
							<path class="st8" d="M115.17,54.18c-0.03-0.66-0.09-1.32-0.17-1.98l0.01,0.01c-0.11-0.84-0.26-1.68-0.45-2.5
								c-0.34-1.47-0.72-2.64-1.12-4.09c-0.22-0.81-0.71-2.04-0.78-2.62c-0.15-1.34,0.62-2.37,2.35-3.54
								c1.17-0.79,3.5-1.83,5.78-2.55c3.19-1,3.64,0.16,4.56,2.71c0.86,2.37,0.61,6.28,0.22,8.81c-0.2,1.34-0.33,2.69-0.37,4.04
								c-0.04,1.16,0.09,2.27,0.29,3.41c-2.79,1.98-6.61,1.48-9.8,0.7c-0.2-0.04-0.39-0.1-0.57-0.17
								C115.18,55.68,115.19,54.93,115.17,54.18z"/>
							<g>
								<path class="st11" d="M120.83,54.26c0.35,0.29,0.76,0.65,1.1,0.94c0.49-0.78,0.51-0.84,0.97-1.62
									c0.01-4.62-0.18-8.95-1.29-13.38c-0.43,0.3-0.64,0.46-1.07,0.76C121.1,45.2,121.45,49.61,120.83,54.26z"/>
							</g>
							<path class="st20" d="M122.09,50.43c1.97-4.72,1.38-9.08,0.41-14.04c1.77-0.18,2.33,0.77,3.06,2.78
								c0.86,2.37,0.87,7.1,0.48,9.63c-0.4,2.62-0.39,6-0.26,8.48c0.05,0.96,0.38,1.83,0.11,2.81c-0.23,0.82-0.81,1.56-1.6,1.88
								c-0.63,0.26-1.88,0.25-2.3-0.42c-0.15-0.24-0.04-0.71-0.03-1.01c0.01-0.38,0.03-0.75,0.04-1.13
								c0.04-1.59,0.06-3.17,0.07-4.76c0.01-1.01,0.01-2.02,0.01-3.04C122.07,51.27,122.17,50.75,122.09,50.43z"/>
							<path class="st20" d="M114.84,39.24c0.5-0.34,1.25-0.71,2.12-1.08c1.76,4.23,3.91,7.85,5.12,12.28
								c0.14,1.61,0.16,3.22,0.12,4.83c-0.03,1.6-0.22,3.21-0.19,4.81c0.01,0.43,0,0.85-0.06,1.27c-0.09,0.58-0.29,1.16-0.67,1.62
								c-0.38,0.46-0.92,0.77-1.49,0.95c-0.57,0.18-1.17,0.23-1.77,0.24c-0.77,0.01-1.55-0.06-2.27-0.33
								c-0.61-0.22-1.18-0.6-1.57-1.12c-0.24-0.32-0.09-0.74-0.05-1.12c0.11-0.91,0.21-1.81,0.32-2.72
								c0.22-1.92,0.47-3.84,0.54-5.77c0.01-0.29,0.02-0.59-0.01-0.89l0.01,0.01c-0.34-2.64-1.02-4.59-1.58-6.6
								c-0.22-0.81-0.71-2.04-0.78-2.62C112.49,41.66,113.12,40.41,114.84,39.24z"/>
							<path class="st22" d="M117.08,37.36c0.97-0.91,0.23,0.32,0.62,0.35c0.24,0.02,0.53,1.92,0.96,2.97
								c0.46,1.14,0.92,2.28,1.35,3.43c0.75,2,1.65,4.23,2.07,6.32c-1.03-0.67-4.03-5.87-4.03-5.87s0.18-1.5,0.2-1.49
								c-0.46-0.31-1.2-0.75-1.57-1.16C116.12,41.29,115.75,38.62,117.08,37.36z"/>
							<path class="st22" d="M123.64,36.63c-1.09-0.63-1.16-0.03-1.1,0.56c0.12,1.22,0.82,5.53,0.63,7.31
								c-0.37,3.5-0.53,4.4-1.08,5.93c2-1.51,2.69-8.29,2.69-8.29l-0.53-0.44C125.63,39.13,124.53,37.15,123.64,36.63z"/>
							<path class="st13" d="M122.07,40.11c0,0.02,0.01,0.04,0.01,0.06c0,0.13-0.08,0.29-0.13,0.42c-0.1,0.26-0.22,0.52-0.36,0.76
								c-0.08,0.13-0.17,0.27-0.31,0.33c-0.16,0.07-0.35,0.02-0.5-0.07c-0.17-0.1-0.49-0.24-0.45-0.45c0.03-0.19,0.1-0.38,0.16-0.56
								c0.13-0.37,0.3-0.82,0.64-1.05c0.38-0.25,0.65,0.13,0.85,0.41C122.02,40.02,122.06,40.05,122.07,40.11z"/>
							<path class="st23" d="M117.24,38.23c-0.08,2.58,4.76,2.62,4.69,0.2c-0.1-3.38-0.3-3.77-1.9-4.29
								c-0.44-0.14-0.89-0.25-1.35-0.26c-1.68-0.03-1.03,0.82-0.97,1.42C117.9,37.06,117.27,37.31,117.24,38.23z"/>
							<path class="st24" d="M121.14,39.82c0.09,0.28,0.45,0.37,0.69,0.53c0.11,0.07,0.29,0.21,0.43,0.18
								c0.14-0.03,0.22-0.21,0.27-0.33c0.34-0.83,0.54-1.74,0.55-2.64c0-0.29-0.04-0.6-0.27-0.81c-0.2-0.18-0.55-0.22-0.79-0.11
								c-0.26,0.12-0.33,0.64-0.23,0.88C122.12,38.39,121.73,39.38,121.14,39.82z"/>
							<path class="st16" d="M123.98,29.8c0.35,0.56,0.56,1.22,0.55,1.91c0,0.3-0.05,0.59-0.15,0.88c-0.09,0.27-0.26,0.52-0.26,0.81
								c0,0.34,0.24,0.72,0.35,1.04c0.1,0.29,0.16,0.62,0.04,0.9c-0.07,0.16-0.18,0.3-0.28,0.45c-0.45,0.71-0.03,1.75-0.81,2.26
								c-0.2,0.13-0.43,0.15-0.66,0.16c-0.29,0.02-1.6-0.35-2.1-0.57c-0.56-0.25-1.1-0.88-1.51-1.34c-0.32-0.36-0.85-0.82-1.05-1.25
								c-0.06-0.13,0.09-0.16-0.05-0.22c-0.08-0.04-0.18-0.56-0.27-0.57c-0.11-0.01-0.25-0.13-0.34-0.19
								c-0.18-0.12-0.26,0.31-0.32,0.11c-0.25-0.86-0.56-1.74-0.52-2.65c0.03-0.83,0.02-1.55,0.55-2.25c0.4-0.53,0.98-0.92,1.6-1.16
								c0.95-0.36,2.03-0.38,2.99-0.05C122.66,28.36,123.47,28.99,123.98,29.8z"/>
							<path class="st25" d="M116.02,31.35c-0.06-2.41,1.61-2.86,1.61-2.86s0.74-1.25,2.68-1.16c1.02,0.05,2.02,0.38,2.88,0.92
								c0.03,0.02,0.07,0.04,0.1,0.07c0.42,0.27,0.82,0.6,1.09,1.01c0.74,1.15-0.26,2.07-1.47,1.88c-0.57-0.09-1.09-0.35-1.64-0.55
								c-0.38-0.13-0.8-0.23-1.17-0.06c-0.36,0.16-0.58,0.56-0.64,0.95c-0.13,0.87,0.17,1.73,0.2,2.59c0,0.13,0,0.26-0.07,0.38
								c-0.17,0.31-0.5,0.14-0.68-0.05c-0.12-0.12-0.21-0.27-0.32-0.4c-0.11-0.13-0.25-0.24-0.42-0.27
								c-0.27-0.05-0.48,0.16-0.52,0.41c-0.04,0.23,0,0.46,0.06,0.68c0.01,0.05,0.13,0.45-0.03,0.45
								C117.52,35.34,116.09,33.87,116.02,31.35z"/>
							<path class="st24" d="M121.18,39.84c0,0-0.42,0.66-0.93,1.12c-0.13,0.11-0.23,0.25-0.4,0.2c-0.83-0.27-2.58-1.74-2.93-2.66
								c-0.13-0.34,0.12-0.75,0.31-1.02c0.03-0.05,0.3-0.41,0.35-0.44c0.03,0.05,0.21,0.72,0.51,1.15
								C118.76,39.17,119.98,39.67,121.18,39.84z"/>
						</g>
					</g>
					<g>
						<g class="st2">
							<g>
								<defs>
									<path id="SVGID_1_" d="M109.65,72.36l8.13,4.72c-0.05-0.03-0.08-0.09-0.08-0.18l-8.13-4.72
										C109.57,72.27,109.6,72.33,109.65,72.36z"/>
								</defs>
								<use xlink:href="#SVGID_1_"  style="overflow:visible;fill:#893F24;"/>
								<clipPath id="SVGID_2_">
									<use xlink:href="#SVGID_1_"  style="overflow:visible;"/>
								</clipPath>
								<g class="st26">
									<path class="st27" d="M117.7,76.9l-8.13-4.72c0,0.01,0,0.02,0,0.03l8.13,4.72C117.7,76.91,117.7,76.91,117.7,76.9
										L117.7,76.9z"/>
									<path class="st27" d="M117.7,76.92l-8.13-4.72c0,0.03,0.01,0.05,0.01,0.07l8.13,4.72C117.71,76.97,117.7,76.95,117.7,76.92
										L117.7,76.92z"/>
									<path class="st27" d="M117.71,76.99l-8.13-4.72c0.01,0.02,0.02,0.04,0.03,0.06l8.13,4.72
										C117.73,77.03,117.72,77.02,117.71,76.99L117.71,76.99z"/>
									<path class="st27" d="M117.74,77.05l-8.13-4.72c0.01,0.01,0.02,0.02,0.04,0.03l8.13,4.72
										C117.77,77.07,117.75,77.06,117.74,77.05L117.74,77.05z"/>
								</g>
							</g>
							<g class="st2">
								<defs>
									<path id="SVGID_3_" class="st2" d="M119.11,69.32l-8.13-4.72c-0.05-0.03-0.12-0.02-0.19,0.02l8.13,4.72
										C119,69.3,119.06,69.29,119.11,69.32z"/>
								</defs>
								<use xlink:href="#SVGID_3_"  style="overflow:visible;fill:#893F24;"/>
								<clipPath id="SVGID_4_">
									<use xlink:href="#SVGID_3_"  style="overflow:visible;"/>
								</clipPath>
								<g class="st28">
									<path class="st27" d="M119.11,69.32l-8.13-4.72c-0.05-0.03-0.12-0.02-0.19,0.02l8.13,4.72
										C119,69.3,119.06,69.29,119.11,69.32L119.11,69.32z"/>
								</g>
							</g>
							<g>
								<polygon class="st27" points="118.92,69.34 110.79,64.62 110.07,65.04 118.19,69.76 								"/>
							</g>
							<g>
								<polygon class="st27" points="109.58,72.17 117.7,76.9 117.8,74.15 117.92,70.46 117.93,70.21 109.8,65.48 109.79,65.74 
									109.67,69.43 								"/>
							</g>
							<g>
								<polygon class="st29" points="109.67,69.43 117.8,74.15 117.92,70.46 109.79,65.74 								"/>
							</g>
							<g class="st2">
								<defs>
									<path id="SVGID_5_" class="st2" d="M118.19,69.76l-8.13-4.72c-0.14,0.08-0.26,0.28-0.27,0.45l8.13,4.72
										C117.93,70.04,118.05,69.84,118.19,69.76z"/>
								</defs>
								<use xlink:href="#SVGID_5_"  style="overflow:visible;fill:#893F24;"/>
								<clipPath id="SVGID_6_">
									<use xlink:href="#SVGID_5_"  style="overflow:visible;"/>
								</clipPath>
								<g class="st30">
									<polygon class="st27" points="118.19,69.76 110.07,65.04 110.06,65.04 118.18,69.77 118.19,69.76 									"/>
									<path class="st27" d="M118.18,69.77l-8.13-4.72c-0.02,0.01-0.05,0.03-0.07,0.05l8.13,4.72
										C118.14,69.8,118.16,69.78,118.18,69.77L118.18,69.77z"/>
									<path class="st27" d="M118.11,69.82l-8.13-4.72c-0.02,0.02-0.04,0.04-0.06,0.07l8.13,4.72
										C118.07,69.86,118.09,69.84,118.11,69.82L118.11,69.82z"/>
									<path class="st27" d="M118.05,69.89l-8.13-4.72c-0.07,0.09-0.12,0.21-0.12,0.32l8.13,4.72
										C117.93,70.1,117.98,69.98,118.05,69.89L118.05,69.89z"/>
								</g>
							</g>
							<g>
								<path class="st31" d="M118.19,69.76c-0.14,0.08-0.26,0.28-0.27,0.45l-0.23,6.69c-0.01,0.18,0.12,0.25,0.27,0.17
									c0.02-0.01,0.05-0.03,0.08-0.06c0.17-0.16,0.35-0.29,0.53-0.4c0.18-0.1,0.36-0.18,0.53-0.22c0.03-0.01,0.05-0.02,0.08-0.03
									c0.15-0.08,0.27-0.3,0.27-0.47l-0.2-6.48c-0.01-0.16-0.19-0.15-0.33-0.06L118.19,69.76z"/>
							</g>
							<g>
								<path class="st32" d="M118.43,70.17c0,0,0.21-0.21,0.31-0.1c0.38,2.08,0.16,4.16,0.58,6.17c-0.04,0.05-0.09,0.1-0.14,0.13
									c-0.02,0.01-0.05,0.02-0.08,0.03c-0.17,0.04-0.35,0.12-0.53,0.22c-0.04,0.02-0.08,0.05-0.13,0.08
									C118.64,74.55,117.93,72.36,118.43,70.17z"/>
							</g>
						</g>
					</g>
					<g>
						<g class="st2">
							<g class="st2">
								<defs>
									<path id="SVGID_7_" class="st2" d="M119.21,69.13l-8.13-4.72c-0.07-0.04-0.16-0.03-0.27,0.03l8.13,4.72
										C119.05,69.1,119.14,69.09,119.21,69.13z"/>
								</defs>
								<use xlink:href="#SVGID_7_"  style="overflow:visible;fill:#AD5D37;"/>
								<clipPath id="SVGID_8_">
									<use xlink:href="#SVGID_7_"  style="overflow:visible;"/>
								</clipPath>
								<g class="st33">
									<path class="st34" d="M119.21,69.13l-8.13-4.72c-0.07-0.04-0.16-0.03-0.27,0.03l8.13,4.72
										C119.05,69.1,119.14,69.09,119.21,69.13L119.21,69.13z"/>
								</g>
							</g>
							<g>
								<polygon class="st34" points="118.94,69.16 110.81,64.44 110.09,64.86 118.21,69.58 								"/>
							</g>
							<g>
								<polygon class="st35" points="117.84,70.21 109.71,65.49 109.6,68.83 117.72,73.56 								"/>
							</g>
							<g class="st2">
								<defs>
									<path id="SVGID_9_" class="st2" d="M118.21,69.58l-8.13-4.72c-0.2,0.12-0.37,0.4-0.38,0.63l8.13,4.72
										C117.84,69.98,118.01,69.7,118.21,69.58z"/>
								</defs>
								<use xlink:href="#SVGID_9_"  style="overflow:visible;fill:#AD5D37;"/>
								<clipPath id="SVGID_10_">
									<use xlink:href="#SVGID_9_"  style="overflow:visible;"/>
								</clipPath>
								<g class="st36">
									<path class="st34" d="M118.21,69.58l-8.13-4.72c-0.01,0-0.01,0.01-0.02,0.01l8.13,4.72
										C118.2,69.59,118.21,69.58,118.21,69.58L118.21,69.58z"/>
									<path class="st34" d="M118.2,69.59l-8.13-4.72c-0.03,0.02-0.07,0.05-0.1,0.08l8.13,4.72
										C118.13,69.64,118.16,69.61,118.2,69.59L118.2,69.59z"/>
									<path class="st34" d="M118.1,69.67l-8.13-4.72c-0.03,0.03-0.06,0.06-0.09,0.1l8.13,4.72
										C118.04,69.73,118.07,69.69,118.1,69.67L118.1,69.67z"/>
									<path class="st35" d="M118.01,69.76l-8.13-4.72c-0.1,0.13-0.17,0.3-0.17,0.45l8.13,4.72
										C117.84,70.06,117.91,69.9,118.01,69.76L118.01,69.76z"/>
								</g>
							</g>
							<g>
								<path class="st37" d="M118.21,69.58c-0.2,0.12-0.37,0.4-0.38,0.63l-0.11,3.34l0.22-0.12l0.11-3.34
									c0-0.1,0.07-0.21,0.15-0.26l0.73-0.42c0.05-0.03,0.15-0.08,0.22-0.08c0.05,0,0.07,0.03,0.09,0.08c0,0,0-0.25-0.04-0.28
									c-0.06-0.05-0.17-0.04-0.27,0.02L118.21,69.58z"/>
							</g>
						</g>
					</g>
					<g>
						<g>
							<g>
								<path class="st37" d="M112.61,65.74c-0.01,0.1,0.04,0.19,0.11,0.26c0.07,0.07,0.16,0.11,0.25,0.15
									c0.04,0.02,0.08,0.03,0.12,0.03c0.02,0,0.04,0,0.05-0.02c0.01-0.01,0.01-0.01,0.01-0.02c0-0.01,0-0.01,0-0.02
									c0-0.02,0.01-0.03,0.01-0.05c0.01-0.04,0.01-0.07,0.02-0.11c0.02-0.07,0.04-0.14,0.06-0.21c0.04-0.09,0.09-0.18,0.15-0.25
									c0.06-0.06,0.13-0.11,0.2-0.14c0.08-0.03,0.16-0.04,0.25-0.04c0.09,0,0.19,0.02,0.27,0.05c0.1,0.03,0.2,0.08,0.29,0.13
									c0.1,0.06,0.21,0.13,0.3,0.2c0.1,0.08,0.2,0.17,0.3,0.26c0.03,0.03,0.06,0.06,0.09,0.09c0-0.2-0.02-0.44-0.01-0.67
									c-0.05-0.05-0.11-0.1-0.17-0.15c-0.09-0.07-0.18-0.14-0.28-0.2c-0.09-0.05-0.18-0.1-0.28-0.14
									c-0.09-0.04-0.18-0.06-0.28-0.08c-0.09-0.02-0.18-0.02-0.27-0.02c-0.09,0.01-0.18,0.02-0.27,0.05
									c-0.09,0.03-0.17,0.07-0.25,0.11c-0.09,0.05-0.17,0.11-0.24,0.18c-0.08,0.08-0.16,0.16-0.22,0.25
									c-0.04,0.05-0.07,0.1-0.1,0.16c-0.02,0.03-0.03,0.05-0.05,0.08C112.65,65.66,112.62,65.7,112.61,65.74z"/>
							</g>
							<g>
								<path class="st38" d="M112.67,65.63c0.02-0.03,0.03-0.06,0.05-0.08c0.03-0.05,0.07-0.1,0.1-0.16
									c0.07-0.09,0.14-0.18,0.22-0.25c0.07-0.07,0.15-0.13,0.24-0.18c0.08-0.05,0.17-0.09,0.25-0.11
									c0.09-0.03,0.18-0.04,0.27-0.05c0.08,0,0.16,0,0.23,0.01c-0.61,0.13-1.24,0.5-1.04,1.05c0,0.03,0.15,0.04,0.2,0.04
									c-0.01,0.02-0.01,0.04-0.02,0.07c-0.01,0.03-0.01,0.07-0.02,0.11c0,0.02-0.01,0.03-0.01,0.05c0,0.01,0,0.01,0,0.02
									c0,0.01,0,0.02-0.01,0.02c-0.01,0.02-0.03,0.02-0.05,0.02c-0.04,0-0.08-0.01-0.12-0.03c-0.09-0.04-0.18-0.08-0.25-0.15
									c-0.07-0.07-0.12-0.16-0.11-0.26C112.62,65.7,112.65,65.66,112.67,65.63z"/>
							</g>
							<path class="st16" d="M114.29,63.25c0-0.01,0-0.02,0-0.03c0.36,0.38,0.77,0.76,0.99,1.23c0.11,0.23,0.2,0.48,0.24,0.73
								c0.06,0.37-0.06,0.59-0.06,0.59s-0.21-0.24-0.27-0.3c-0.06-0.06-0.12-0.02-0.13,0.08L114.29,63.25z"/>
						</g>
						<path class="st22" d="M111.45,52.66c-0.12-1.98-0.01-4.5,0.03-7.67c0.01-0.85,0.15-1.72,0.41-2.53
							c0.27-0.82,0.75-1.42,1.36-2.01c0.28-0.27,0.63-0.54,1.01-0.48c0.35,0.05,0.6,0.36,0.78,0.67c1.13,1.81,1.28,4.18,0.98,6.25
							c-0.28,1.93-0.31,3.89-0.61,5.83c-0.06,0.37-0.1,0.77-0.23,1.12C114.28,56.31,111.64,55.94,111.45,52.66z"/>
					</g>
					<path class="st37" d="M115.1,65.38c0.01,0.01,0,0.09,0,0.11c0,0.04,0,0.08,0,0.12c0,0.08,0,0.15,0.01,0.23
						c0.01,0.13-0.01,0.28,0.05,0.4c0.07,0.14,0.15,0.27,0.22,0.41c0.14,0.29,0.27,0.58,0.39,0.88c0.09,0.21,0.22,0.47,0.45,0.56
						c0.1,0.04,0.23,0.04,0.33-0.02c0.13-0.08,0.03-0.18-0.01-0.28c-0.03-0.08-0.06-0.17-0.09-0.25c-0.07-0.17-0.14-0.34-0.22-0.51
						c-0.07-0.16-0.15-0.31-0.23-0.46c-0.02-0.03-0.03-0.06-0.05-0.09c-0.06-0.11-0.13-0.22-0.2-0.32
						c-0.08-0.12-0.17-0.25-0.26-0.36c-0.01-0.01-0.02-0.03-0.03-0.04c-0.08-0.1-0.16-0.19-0.24-0.27
						C115.17,65.45,115.13,65.42,115.1,65.38z"/>
					<path class="st38" d="M116.43,68.11c-0.07,0.01-0.15,0.01-0.22-0.02c-0.22-0.09-0.36-0.35-0.45-0.56
						c-0.12-0.29-0.25-0.59-0.39-0.88c-0.07-0.14-0.15-0.28-0.22-0.41c-0.06-0.12-0.05-0.27-0.05-0.4c0-0.07-0.01-0.15-0.01-0.22
						C115.45,66.47,115.87,67.32,116.43,68.11z"/>
					<g>
						<g>
							<g class="st2">
								<g>
									<polygon class="st39" points="116.32,73.08 116.39,73.04 116.39,72.36 116.32,72.41 									"/>
								</g>
								<g>
									<polygon class="st40" points="116.32,72.41 116.39,72.36 115.58,71.89 115.51,71.94 									"/>
								</g>
								<g>
									<polygon class="st41" points="115.51,71.94 115.51,72.62 116.32,73.08 116.32,72.41 									"/>
								</g>
							</g>
						</g>
						<g>
							<g class="st2">
								<g>
									<polygon class="st39" points="111.37,70.31 111.44,70.27 111.44,69.59 111.37,69.63 									"/>
								</g>
								<g>
									<polygon class="st40" points="111.37,69.63 111.44,69.59 110.63,69.12 110.56,69.17 									"/>
								</g>
								<g>
									<polygon class="st41" points="110.56,69.17 110.56,69.84 111.37,70.31 111.37,69.63 									"/>
								</g>
							</g>
						</g>
					</g>
					<path class="st16" d="M117.99,33.33c-0.72-0.05-0.9,0.84-0.41,1.53c0.14,0.2,0.4,0.38,0.58,0.54c1.28,1.09,1.6-0.09,1.2-0.46
						C118.42,34.07,118.89,33.39,117.99,33.33z"/>
					<path class="st21" d="M118.21,34.68c-0.08-0.08-0.9-0.56-0.34-0.88c0.15-0.09,0.33,0.04,0.35,0.21c0.01,0.08-0.01,0.17,0,0.26
						c0.01,0.05,0.03,0.1,0.05,0.14c0.07,0.12,0.32,0.23,0.27,0.4C118.5,34.96,118.26,34.72,118.21,34.68z"/>
					<path class="st16" d="M112.34,61.45c0.03-0.04,0.07-0.04,0.12-0.04c0.26,0,0.56,0.23,0.83,0.49c0.14,0.14,0.27,0.28,0.41,0.43
						c0.11,0.11,0.29,0.25,0.38,0.39c0.09,0.15,0.15,0.38,0.21,0.54c0.08,0.21,0.17,0.43,0.25,0.64c0.1,0.25,0.19,0.49,0.29,0.74
						c0.03,0.07,0.06,0.15,0.08,0.22l0.05,0.08c0.09,0.04,0.17,0.09,0.22,0.14l0.08,0.46c-0.01-0.03-0.07-0.09-0.11-0.08
						c-0.05,0.02-0.03,0.25-0.02,0.32c0,0.16,0.05,0.32,0.11,0.46c0.08,0.2,0.19,0.4,0.25,0.6c0.04,0.14,0.07,0.3-0.01,0.42
						c-0.02,0.03-0.04,0.05-0.06,0.07c-0.22,0.14-0.32-0.17-0.47-0.25c-0.05-0.03-0.11-0.04-0.17-0.02
						c-0.04,0.01-0.06,0.03-0.1,0.03c-0.09-0.01-0.17-0.09-0.22-0.16c-0.05-0.07-0.08-0.15-0.13-0.22
						c-0.04-0.07-0.11-0.15-0.17-0.15c-0.04,0-0.06,0.02-0.1,0.02c-0.08,0-0.17-0.13-0.23-0.23c-0.06-0.11-0.14-0.23-0.23-0.25
						c-0.03-0.01-0.06,0-0.09-0.01c-0.08-0.01-0.18-0.09-0.23-0.14c-0.07-0.07-0.11-0.17-0.15-0.26c-0.14-0.35-0.26-0.71-0.3-1.08
						c-0.02-0.15,0.01-0.32-0.05-0.47c-0.06-0.16-0.08-0.34-0.11-0.51c-0.11-0.62-0.22-1.25-0.33-1.87
						C112.31,61.63,112.29,61.51,112.34,61.45z"/>
					<path class="st17" d="M115.26,62.86c-0.05,0.86-0.23,1.17-1.09,1.36c-0.78,0.18-1.83,0.07-1.86-0.74
						c-0.06-1.28,0.22-1.17,0.72-1.17c0.48,0,0.97,0.04,1.45,0.11c0.22,0.03,0.45,0.08,0.61,0.23L115.26,62.86z"/>
					<path class="st22" d="M115.38,61.69c-0.03,0.49,0.11,1.04-0.15,1.48c-0.32,0.55-1.05,0.77-1.68,0.76
						c-0.47,0-1.07-0.04-1.29-0.49c-0.26-0.53-0.27-1.14-0.34-1.71c-0.1-0.83-0.23-1.65-0.29-2.49c-0.13-1.67-0.13-3.34-0.14-5.01
						c0-0.67-0.15-2.97-0.09-4c0.07-1.15,4.19,0.86,4.14,1.59c-0.05,0.82-0.22,4.98-0.2,5.81
						C115.38,58.98,115.46,60.34,115.38,61.69z"/>
				</g>
				<path class="st18" d="M121.84,52.61c0,0.28,0.19,0.39,0.43,0.25c0.24-0.14,0.43-0.47,0.43-0.75s-0.19-0.39-0.43-0.25
					C122.03,52,121.84,52.33,121.84,52.61z"/>
				<path class="st18" d="M121.78,57.12c0,0.28,0.19,0.39,0.43,0.25c0.24-0.14,0.43-0.47,0.43-0.75c0-0.28-0.19-0.39-0.43-0.25
					C121.97,56.51,121.78,56.85,121.78,57.12z"/>
			</g>
		</g>
	</g>
</g>
</svg>
