<?xml version="1.0" encoding="utf-8"?>
<!-- Generator: Adobe Illustrator 25.2.1, SVG Export Plug-In . SVG Version: 6.00 Build 0)  -->
<svg version="1.1" xmlns="http://www.w3.org/2000/svg" xmlns:xlink="http://www.w3.org/1999/xlink" x="0px" y="0px"
	 viewBox="0 0 1145.78 1247.66" style="enable-background:new 0 0 1145.78 1247.66;" xml:space="preserve">
<style type="text/css">
	.st0{fill:#1F65CF;}
	.st1{fill:none;stroke:#9FD1FC;stroke-width:2.4056;stroke-miterlimit:10;}
	.st2{fill:#48C6AA;}
	.st3{fill:#D9FFFF;}
	.st4{fill:#FFFFFF;}
	.st5{fill:#C9F5FF;}
	.st6{fill:#453B73;}
	.st7{fill:#48C6C6;}
	.st8{fill:#5C5099;}
	.st9{fill:#9FD1FC;}
	.st10{fill:none;stroke:#FFFFFF;stroke-width:1.3238;stroke-miterlimit:10;}
	.st11{fill:#83C4FC;}
	.st12{clip-path:url(#SVGID_2_);}
	.st13{fill:#F7A594;}
	.st14{fill:#E6836F;}
	.st15{fill:#002E73;}
	.st16{fill:#231F20;}
	.st17{fill:#73382A;}
	.st18{fill:#FDB477;}
	.st19{fill:#5C2D22;}
	.st20{fill:#FFF890;}
	.st21{fill:#FFDD69;}
	.st22{fill:#F79683;}
	.st23{fill:#5D4F99;}
	.st24{fill:#241F3C;}
	.st25{fill:#7362BF;}
	.st26{fill:#FDFDFF;}
	.st27{fill:#247F7D;}
	.st28{fill:#51DEDE;}
	.st29{fill:#FD9463;}
	.st30{fill:#C9F5F7;}
	.st31{fill:#A5EEF2;}
	.st32{clip-path:url(#SVGID_4_);}
</style>
<g id="BG">
</g>
<g id="Layer_5">
</g>
<g id="text">
</g>
<g id="illutration">
	<g>
		<g>
			<path class="st0" d="M1258.96,755.07l-0.06,0.04l-4.84,1.38l-11.83,3.49c-5.16-17.55-13.83-34.38-26.11-49.47l13.55-11.03
				c-13.54-16.63-29.77-29.86-47.55-39.44l-8.34,15.32c-16.65-9.13-34.86-14.63-53.42-16.57l1.78-17.31
				c-11.93-1.23-24.02-1.11-36,0.39c-8.58,1.05-17.11,2.82-25.49,5.3l4.92,16.73c-17.55,5.16-34.38,13.82-49.47,26.1l-11.03-13.54
				c-16.62,13.53-29.86,29.76-39.44,47.54l15.32,8.35c-9.14,16.65-14.63,34.85-16.58,53.41l-17.31-1.77
				c-2.15,20.51-0.25,41.4,5.69,61.49l0.14-0.04l11.01-3.24l5.57-1.64c5.16,17.55,13.87,34.43,26.11,49.47l-13.55,11.03
				c13.54,16.63,29.72,29.81,47.45,39.44l8.34-15.32c16.7,9.1,34.94,14.64,53.51,16.59l-1.77,17.31c3.38,0.34,6.77,0.59,10.16,0.71
				c17.18,0.68,34.5-1.4,51.27-6.35l-1.07-3.74l-3.84-12.99c17.56-5.16,34.44-13.87,49.53-26.15l11.03,13.54
				c16.62-13.53,29.81-29.72,39.39-47.5l-15.32-8.34c9.13-16.65,14.67-34.9,16.62-53.46l17.32,1.77
				C1266.74,796.08,1264.89,775.15,1258.96,755.07z M1074.96,825.42c-13.9-17.08-11.32-42.19,5.76-56.08
				c5.71-4.65,12.32-7.46,19.09-8.5c13.53-2.08,27.75,2.86,37.01,14.23c6.61,8.11,9.49,18.04,8.88,27.71
				c-0.68,10.7-5.67,21.1-14.65,28.42C1113.98,845.1,1088.88,842.53,1074.96,825.42z"/>
		</g>
		<g>
			<path class="st1" d="M178.96,445.54c5.53,6.79,12.14,12.18,19.39,16.11l3.41-6.26c6.82,3.72,14.28,5.98,21.86,6.78l-0.73,7.07
				c8.37,0.86,16.9,0.12,25.1-2.31l-0.44-1.52l-1.57-5.31c7.17-2.11,14.07-5.67,20.23-10.68l4.5,5.54
				c6.79-5.53,12.18-12.14,16.1-19.41l-6.26-3.41c3.73-6.8,6-14.26,6.79-21.84l7.07,0.73c0.86-8.37,0.1-16.92-2.32-25.12l-0.02,0.02
				l-1.98,0.57l-4.83,1.43c-2.11-7.17-5.65-14.05-10.67-20.21l5.54-4.51c-5.53-6.79-12.16-12.2-19.43-16.12l-3.41,6.26
				c-6.8-3.73-14.24-5.98-21.83-6.77l0.73-7.07c-8.37-0.86-16.92-0.1-25.12,2.32l2.01,6.84c-7.17,2.11-14.05,5.65-20.21,10.67
				l-4.5-5.53c-6.79,5.53-12.2,12.16-16.12,19.43l6.26,3.41c-3.73,6.8-5.98,14.24-6.77,21.83l-7.07-0.73
				c-0.88,8.38-0.1,16.92,2.32,25.12l0.06-0.01l4.5-1.33l2.28-0.67c2.11,7.17,5.67,14.07,10.67,20.21L178.96,445.54z M207.37,422.42
				c-9.97-12.25-8.12-30.27,4.13-40.24c12.27-9.99,30.29-8.14,40.26,4.11c9.99,12.27,8.14,30.29-4.13,40.28
				C235.38,436.54,217.36,434.69,207.37,422.42z"/>
		</g>
		<g>
			<g>
				<g>
					<path class="st2" d="M483.14,164.79c1.81,6.93,4.9,13.19,8.96,18.57l4.66-3.5c3.82,5.08,8.6,9.3,13.97,12.46l-2.94,5.02
						c5.94,3.48,12.53,5.82,19.46,6.8l0.19-1.28l0.63-4.48c6.05,0.86,12.39,0.56,18.68-1.08l1.47,5.65
						c6.93-1.81,13.19-4.9,18.57-8.98l-3.5-4.66c5.09-3.8,9.3-8.58,12.47-13.95l5.02,2.94c3.48-5.94,5.82-12.56,6.8-19.49
						l-0.02,0.01l-1.67-0.25l-4.08-0.58c0.87-6.05,0.56-12.37-1.08-18.66l5.65-1.47c-1.81-6.93-4.91-13.21-8.99-18.59l-4.66,3.5
						c-3.8-5.09-8.57-9.28-13.95-12.45l2.94-5.02c-5.94-3.48-12.56-5.82-19.49-6.8l-0.82,5.77c-6.05-0.86-12.37-0.56-18.66,1.08
						l-1.47-5.65c-6.93,1.81-13.21,4.91-18.59,8.99l3.5,4.66c-5.09,3.8-9.28,8.57-12.45,13.94l-5.02-2.94
						c-3.5,5.94-5.82,12.56-6.8,19.49l0.05,0.01l3.8,0.54l1.92,0.27c-0.87,6.05-0.56,12.4,1.08,18.66L483.14,164.79z"/>
				</g>
				<g>
					<g>
						<g>
							<g>
								<path class="st3" d="M555.84,132.79L555.84,132.79c0-0.07,0-0.1,0-0.11C555.84,132.69,555.84,132.79,555.84,132.79z"/>
								<path class="st3" d="M555.84,132.79L555.84,132.79c0-0.07,0-0.1,0-0.11C555.84,132.69,555.84,132.79,555.84,132.79z"/>
								<path class="st3" d="M512.34,133.27c0,0,0-0.1,0-0.11C512.34,133.17,512.34,133.2,512.34,133.27L512.34,133.27z"/>
								<path class="st3" d="M512.34,133.27c0,0,0-0.1,0-0.11C512.34,133.17,512.34,133.2,512.34,133.27L512.34,133.27z"/>
								<path class="st4" d="M512.38,134.56c0.02,1.95,0.07,6.56,0.19,17.19c0.22,19.6,19.26,29.04,22.09,30.31
									c2.9-1.49,21.58-11.19,21.36-30.79c-0.11-9.85-0.16-14.52-0.19-16.71l-21.68-8.88L512.38,134.56z"/>
							</g>
						</g>
					</g>
					<g>
						<path class="st2" d="M525.33,148.81l0.09,12.87c0.01,1.43,17.58,1.32,17.57-0.12l-0.09-12.87L525.33,148.81z M531.97,153.63
							c-0.01-1.19,0.95-2.16,2.15-2.17c1.2-0.01,2.18,0.95,2.19,2.14c0.01,0.87-0.52,1.63-1.27,1.98l0.02,3.65
							c0,0.49-0.39,0.89-0.89,0.9c-0.49,0-0.89-0.4-0.89-0.88l-0.02-3.65C532.51,155.26,531.98,154.51,531.97,153.63z"/>
						<path class="st2" d="M526.86,147.89l1.78-0.01l-0.01-0.87c-0.02-3,2.42-5.46,5.43-5.48c3.02-0.02,5.49,2.41,5.51,5.41
							l0.01,0.87l1.78-0.01l-0.01-0.87c-0.03-3.98-3.3-7.19-7.3-7.17c-4,0.03-7.23,3.28-7.2,7.26L526.86,147.89z"/>
					</g>
				</g>
			</g>
			<g id="cloud_4_">
				<path class="st5" d="M504.71,188.28c0.5-3.66,0.84-7.37,0.84-11.16c0-45.66-37.01-82.67-82.67-82.67
					c-34.25,0-63.64,20.83-76.18,50.51c-10.21-9.09-23.62-14.66-38.36-14.66c-31.9,0-57.77,25.86-57.77,57.77H239.8
					c-30.68,0-55.78,25.1-55.78,55.77v0c0,30.68,25.1,55.77,55.78,55.77h260.79c30.68,0,55.77-25.1,55.77-55.77v0
					C556.37,214.56,533.47,190.41,504.71,188.28z"/>
			</g>
			<g>
				
					<rect x="350.95" y="170.36" transform="matrix(-1 -1.224647e-16 1.224647e-16 -1 818.9597 446.6009)" class="st6" width="117.05" height="105.89"/>
				<g>
					<rect x="345.99" y="170.36" class="st7" width="126.97" height="31.96"/>
					<g>
						
							<rect x="455.02" y="178.51" transform="matrix(-1 -1.224647e-16 1.224647e-16 -1 922.5984 373.9453)" class="st6" width="12.55" height="16.93"/>
						
							<rect x="436.19" y="178.51" transform="matrix(-1 -1.224647e-16 1.224647e-16 -1 884.9365 373.9453)" class="st6" width="12.55" height="16.93"/>
						
							<rect x="417.36" y="178.51" transform="matrix(-1 -1.224647e-16 1.224647e-16 -1 847.2745 373.9453)" class="st6" width="12.55" height="16.93"/>
					</g>
				</g>
				<g>
					<rect x="345.99" y="208.31" class="st7" width="126.97" height="31.96"/>
					<g>
						
							<rect x="455.02" y="216.46" transform="matrix(-1 -1.224647e-16 1.224647e-16 -1 922.5984 449.8531)" class="st6" width="12.55" height="16.93"/>
						
							<rect x="436.19" y="216.46" transform="matrix(-1 -1.224647e-16 1.224647e-16 -1 884.9365 449.8531)" class="st6" width="12.55" height="16.93"/>
						
							<rect x="417.36" y="216.46" transform="matrix(-1 -1.224647e-16 1.224647e-16 -1 847.2745 449.8531)" class="st6" width="12.55" height="16.93"/>
					</g>
				</g>
				<g>
					<rect x="345.99" y="246.26" class="st7" width="126.97" height="31.96"/>
					<g>
						
							<rect x="455.02" y="254.41" transform="matrix(-1 -1.224647e-16 1.224647e-16 -1 922.5984 525.7611)" class="st6" width="12.55" height="16.93"/>
						
							<rect x="436.19" y="254.41" transform="matrix(-1 -1.224647e-16 1.224647e-16 -1 884.9365 525.7611)" class="st6" width="12.55" height="16.93"/>
						
							<rect x="417.36" y="254.41" transform="matrix(-1 -1.224647e-16 1.224647e-16 -1 847.2745 525.7611)" class="st6" width="12.55" height="16.93"/>
					</g>
				</g>
			</g>
			<g>
				<g>
					<rect x="300.6" y="209.21" class="st8" width="19.55" height="37.3"/>
					<polygon class="st8" points="310.51,259.73 293.21,239.19 327.53,239.19 					"/>
				</g>
				<g>
					
						<rect x="269.9" y="222.66" transform="matrix(-1 -1.224647e-16 1.224647e-16 -1 559.3606 482.6285)" class="st8" width="19.55" height="37.3"/>
					<polygon class="st8" points="279.54,209.44 296.84,229.98 262.52,229.98 					"/>
				</g>
			</g>
		</g>
		<g id="cloud_3_">
			<path class="st5" d="M734.96,209.18c0.14-1.06,0.24-2.14,0.24-3.24c0-13.23-10.73-23.96-23.96-23.96
				c-9.93,0-18.44,6.04-22.08,14.64c-2.96-2.63-6.85-4.25-11.12-4.25c-9.25,0-16.74,7.5-16.74,16.74h-3.12
				c-8.89,0-16.17,7.27-16.17,16.17v0c0,8.89,7.27,16.17,16.17,16.17h75.59c8.89,0,16.17-7.27,16.17-16.17v0
				C749.93,216.8,743.3,209.8,734.96,209.18z"/>
		</g>
		<g>
			<g>
				<path class="st9" d="M1085.66,802.8l-13.93-1.54l-34.14-3.48c5.2-50.63,0.6-103.09-15.12-154.87l46.49-14.13
					c-17.34-57.06-45.2-108.23-80.9-151.63l-37.61,30.67c-33.25-41.06-74.35-74.36-120.09-98.94l22.8-42.71
					c-50.52-26.97-106.36-44.25-164.31-50.11l-4.96,48.26c-29.29-3.01-59.19-2.73-89.21,1.07c-21.87,2.77-43.83,7.43-65.66,14.06
					l-14.13-46.49c-9.68,2.93-19.2,6.18-28.52,9.73c-45.67,17.29-87.07,41.52-123.1,71.16l30.66,37.62
					c-39.78,32.21-72.28,71.77-96.61,115.8c-0.79,1.42-1.56,2.85-2.33,4.28l-8.02-4.28l-34.68-18.52
					c-3.27,6.1-6.41,12.28-9.38,18.52c-21.73,45.54-35.58,94.84-40.73,145.79l0.41,0.06l31.76,3.24l16.09,1.65
					c-0.96,9.38-1.59,18.83-1.87,28.33c-0.6,20.51,0.4,41.26,3.1,62.03c2.79,21.54,7.4,43.12,13.9,64.52l-34.23,10.4l-12.26,3.72
					c3.63,11.96,7.73,23.65,12.26,35.07c7.06,17.81,15.18,34.92,24.26,51.31c12.88,23.24,27.68,45,44.14,65.13l37.62-30.66
					c33.42,41.01,74.56,74.48,120.32,99.05l-22.8,42.72c50.51,26.97,106.18,44.3,164.12,50.15l1.17-10.74l3.79-37.51
					c50.63,5.2,103.28,0.56,155.05-15.18l14.13,46.49c57.06-17.33,108.06-45.14,151.46-80.83l-30.67-37.62
					c41.06-33.25,74.54-74.4,99.11-120.14l42.72,22.8c26.97-50.51,44.24-106.36,50.1-164.31L1085.66,802.8z M844.08,836.19
					c-23.15,59.07-72.15,107.34-137.64,127.23c-113.41,34.46-233.27-29.54-267.78-143.12c-4.55-14.99-7.39-30.08-8.61-45.08
					c-8.07-98.51,53.14-192.74,151.56-222.64c28.08-8.53,56.54-11.04,84-8.28c35.46,3.57,69.26,15.94,98.4,35.53
					c39.57,26.59,70.56,66.47,85.5,115.64C864.14,743.56,861.09,792.79,844.08,836.19z M1085.66,802.8l-13.93-1.54l-34.14-3.48
					c5.2-50.63,0.6-103.09-15.12-154.87l46.49-14.13c-17.34-57.06-45.2-108.23-80.9-151.63l-37.61,30.67
					c-33.25-41.06-74.35-74.36-120.09-98.94l22.8-42.71c-50.52-26.97-106.36-44.25-164.31-50.11l-4.96,48.26
					c-29.29-3.01-59.19-2.73-89.21,1.07c-21.87,2.77-43.83,7.43-65.66,14.06l-14.13-46.49c-9.68,2.93-19.2,6.18-28.52,9.73
					c-45.67,17.29-87.07,41.52-123.1,71.16l30.66,37.62c-39.78,32.21-72.28,71.77-96.61,115.8c-0.79,1.42-1.56,2.85-2.33,4.28
					l-8.02-4.28l-34.68-18.52c-3.27,6.1-6.41,12.28-9.38,18.52c-21.73,45.54-35.58,94.84-40.73,145.79l0.41,0.06l31.76,3.24
					l16.09,1.65c-0.96,9.38-1.59,18.83-1.87,28.33c-0.6,20.51,0.4,41.26,3.1,62.03c2.79,21.54,7.4,43.12,13.9,64.52l-34.23,10.4
					l-12.26,3.72c3.63,11.96,7.73,23.65,12.26,35.07c7.06,17.81,15.18,34.92,24.26,51.31c12.88,23.24,27.68,45,44.14,65.13
					l37.62-30.66c33.42,41.01,74.56,74.48,120.32,99.05l-22.8,42.72c50.51,26.97,106.18,44.3,164.12,50.15l1.17-10.74l3.79-37.51
					c50.63,5.2,103.28,0.56,155.05-15.18l14.13,46.49c57.06-17.33,108.06-45.14,151.46-80.83l-30.67-37.62
					c41.06-33.25,74.54-74.4,99.11-120.14l42.72,22.8c26.97-50.51,44.24-106.36,50.1-164.31L1085.66,802.8z M844.08,836.19
					c-23.15,59.07-72.15,107.34-137.64,127.23c-113.41,34.46-233.27-29.54-267.78-143.12c-4.55-14.99-7.39-30.08-8.61-45.08
					c-8.07-98.51,53.14-192.74,151.56-222.64c28.08-8.53,56.54-11.04,84-8.28c35.46,3.57,69.26,15.94,98.4,35.53
					c39.57,26.59,70.56,66.47,85.5,115.64C864.14,743.56,861.09,792.79,844.08,836.19z"/>
				<path class="st10" d="M1018.22,813.56l1.8-17.58c1.3-12.61,1.96-25.44,1.96-38.13c0-37.02-5.52-73.96-16.41-109.81l-5.12-16.89
					l46.15-14.02c-14.51-41.66-35.06-80.19-61.29-114.96l-37.43,30.53l-11.15-13.77c-31.26-38.59-69.86-70.39-114.73-94.5
					l-15.51-8.33l22.61-42.35c-39.51-19.08-81.26-31.81-124.54-37.99l-4.92,47.93l-17.56-1.8c-12.61-1.3-25.44-1.96-38.12-1.96
					c-15.64,0-31.46,1-47.01,2.97c-0.02,0-0.04,0.01-0.06,0.01c-21.11,2.68-42.22,7.19-62.75,13.44l-16.89,5.13l-14.02-46.15
					c-3.57,1.24-7.11,2.53-10.62,3.86c-1.27,0.48-2.55,0.97-3.82,1.47c-36.16,14.09-69.88,32.86-100.51,55.95l30.52,37.43
					l-13.77,11.15c-34.94,28.29-64.29,62.59-87.4,102.08c-2.44,4.15-4.8,8.37-7.1,12.64l-8.33,15.51l-42.38-22.63
					c-19.04,39.31-31.77,81.07-37.96,124.57l14.28,1.45l33.65,3.46l-1.8,17.56c-0.9,8.77-1.49,17.65-1.76,26.53
					c-0.12,3.88-0.18,7.75-0.18,11.62c0.01,16.02,1.06,32.22,3.12,48.14c2.69,20.74,7.15,41.48,13.28,61.66l5.12,16.89l-46.14,14.01
					c1.99,5.7,4.1,11.35,6.3,16.91c6.68,16.85,14.51,33.42,23.29,49.26c9.36,16.89,19.92,33.19,31.5,48.64l37.36-30.45l11.15,13.68
					c31.64,38.83,70.33,70.68,114.99,94.66l15.51,8.33l-22.61,42.36c39.57,19.12,81.28,31.87,124.41,38.03l4.85-47.92l17.58,1.8
					c12.57,1.29,25.36,1.94,38.02,1.94c37.13,0,74.17-5.53,110.09-16.45l16.89-5.13l14.03,46.15
					c41.55-14.49,80.04-35.02,114.79-61.23l-30.52-37.44l13.76-11.14c38.78-31.4,70.63-70.03,94.67-114.79l8.33-15.51l42.36,22.61
					c19.07-39.5,31.8-81.27,37.98-124.57L1018.22,813.56z M860.52,842.62c-26.13,66.68-80.42,116.86-148.95,137.68
					c-22.03,6.7-44.77,10.1-67.6,10.1c-102.92,0-192.22-66.3-222.2-164.97c-4.84-15.92-7.97-32.33-9.32-48.77
					c-0.22-2.73-0.4-5.48-0.52-8.24c-0.17-3.54-0.25-7.09-0.25-10.61c0.01-102.92,66.23-192.18,164.79-222.12
					c22.09-6.71,44.9-10.12,67.79-10.12c0.64,0,1.29,0,1.94,0.01c7.05,0.06,14.16,0.45,21.18,1.15
					c37.92,3.82,74.74,17.12,106.47,38.45c4.09,2.75,8.08,5.62,11.98,8.62c38.14,29.36,66.51,70.23,80.57,116.54
					c6.72,22.1,10.12,44.9,10.12,67.77c-0.01,26.71-4.57,52.95-13.6,78.09C862.17,838.35,861.36,840.49,860.52,842.62z"/>
				<path class="st11" d="M665.61,544.28c-27.46-2.75-55.93-0.25-84,8.29c-98.43,29.9-159.63,124.14-151.56,222.64
					c-17.82-5.84-30.21-11.76-35.23-17.6c-38.76-45.06,37.85-234.34,54.98-258.67c17.12-24.34,80.21-36.96,80.21-36.96
					s0-14.42-1.8-42.36c-12.62,0-26.14-32.44-26.14-32.44l-12.62-21.63l-3.09-22.87c9.33-3.54,18.84-6.79,28.52-9.73l14.13,46.49
					c21.82-6.64,43.78-11.29,65.66-14.06l16.45,126.34L665.61,544.28z"/>
				<path class="st11" d="M941.01,814.4c-4.97,4.52-48.58,24.62-96.92,21.79c17.01-43.39,20.05-92.62,5.44-140.73
					c-14.94-49.17-45.94-89.06-85.51-115.65l116.6-32.2c0,0,82.92-0.9,93.74,15.32S960.84,796.37,941.01,814.4z"/>
			</g>
			<g>
				<defs>
					<path id="SVGID_1_" d="M1024.39,64.6H307.85v743.57h130.01c22.64,92.88,106.37,161.82,206.21,161.82
						s183.57-68.95,206.21-161.82h174.1V64.6z"/>
				</defs>
				<clipPath id="SVGID_2_">
					<use xlink:href="#SVGID_1_"  style="overflow:visible;"/>
				</clipPath>
				<g class="st12">
					<path class="st13" d="M704.68,491.48l117.26,63.78l59.66-147.5l30.67,7.71c0,0-19.88,171.35-51.79,202.71
						c-31.91,31.36-194.73-37.73-194.73-37.73C625.86,554.93,662.2,474.02,704.68,491.48z"/>
					<g>
						<path class="st13" d="M879.45,429.36c0,0-10.02-32.89-7.63-41.38c2.39-8.49,35.28-16.7,36.5-12.72
							c1.22,3.98,3.66,13.74-17.72,17.5C903.38,406.93,916.69,434.04,879.45,429.36z"/>
						<g>
							<path class="st13" d="M877.64,430.64c0,0,0-28.83,5.7-39.9c7.59-14.75,26.74-22.91,26.74-22.91s29.91,28.3,30.48,32.97
								c0.56,4.67-28.9,30.21-28.9,30.21S889.87,448.18,877.64,430.64z"/>
							<path class="st13" d="M884.92,393.5c0,0,14.49-70.58,25.53-67.48c5.09,1.43-8.5,68.86-8.5,68.86L884.92,393.5z"/>
							<path class="st14" d="M876.66,420.04c0.07,0.03,0.15,0.03,0.23,0.01c0.21-0.05,0.33-0.26,0.28-0.47
								c-2.46-9.63-6.38-26.54-4.98-31.5c1.84-6.55,23.52-13.37,32.61-13.48c2.71-0.03,3.1,0.57,3.16,0.76
								c0.8,2.63,1.37,5.73-0.53,8.83c-2.37,3.87-8.06,6.63-16.89,8.18l-0.68,0.12l0.46,0.51c5.31,5.88,11.47,14.94,12.83,22.7
								c0.04,0.21,0.24,0.35,0.44,0.31c0.21-0.04,0.35-0.24,0.31-0.44c-1.35-7.7-7.28-16.6-12.55-22.57
								c8.68-1.62,14.31-4.45,16.74-8.41c2.34-3.82,1.13-7.77,0.61-9.46c-0.28-0.9-1.55-1.33-3.9-1.3
								c-9.21,0.11-31.34,6.96-33.33,14.04c-1.45,5.14,2.5,22.19,4.98,31.9C876.46,419.9,876.55,419.99,876.66,420.04z"/>
							<path class="st14" d="M916.69,410.08c0.11,0.04,0.21,0.08,0.31,0.11l0.26,0.08l0.17-0.22c5.25-6.8,16.44-8.71,16.55-8.72
								c0.21-0.03,0.35-0.23,0.32-0.44c-0.03-0.21-0.23-0.35-0.44-0.32c-0.47,0.08-11.37,1.93-16.86,8.79
								c-0.01,0-0.02-0.01-0.03-0.01c-6.67-2.61-14.81-19.71-14.89-19.89c-0.09-0.19-0.32-0.27-0.51-0.18
								c-0.19,0.09-0.27,0.32-0.18,0.51C901.72,390.53,909.73,407.36,916.69,410.08z"/>
						</g>
					</g>
					<path class="st15" d="M683.27,484c0,0,24.56,3.27,83.51,40.94c-6.55,25.38-26.2,91.69-26.2,91.69s-90.06-27.84-102.34-58.13
						C625.96,528.21,639.06,471.72,683.27,484z"/>
					<g>
						<g>
							<path class="st16" d="M395.61,1516.29h93.08c1.92-1.09,3.33-2.33,4.17-3.74c4.79-69.22,11.7-102.55,11.7-102.55l-64.82-2.64
								l-14.67,51.5C403.34,1473.7,377.46,1505.54,395.61,1516.29z"/>
							<path class="st16" d="M495.75,1517.54H385.4c-2.8,0-1.86-15.35,0.94-15.35l109.69,0.62
								C498.91,1502.81,498.63,1517.54,495.75,1517.54z"/>
						</g>
						<path class="st15" d="M534.2,779c-32.44,49.88-56.12,290.93-100.81,653.86l66.06,3.48c19.85-96.67,42.22-145.68,64.95-285.03
							c54.43-122.99,82.67-239.51,97.15-359.47C675.63,701.4,564.61,653.92,534.2,779z"/>
					</g>
					<g>
						<path class="st15" d="M612.33,796.18c4.66,176.5,36.13,326.42,36.13,326.42c7.21,147.81,16.97,142.87,30.66,315.14l59.71-0.79
							c5.02-73.82,44.85-417.91,13.92-638.76C737.79,698.7,602.78,665.77,612.33,796.18z"/>
						<path class="st16" d="M679.11,1437.75c-5.33,28.52-9.15,50.78-6.91,76.59l144.61,2.81c0,0,14.31-13.94-3.68-34.85
							c-18-20.91-52.17-8.81-74.31-45.35L679.11,1437.75z"/>
						<path class="st16" d="M823.38,1517.54H669.74c-2.8,0-2.06-15.35,0.73-15.35l152.99,0.62
							C826.34,1502.81,826.26,1517.54,823.38,1517.54z"/>
					</g>
					<path class="st15" d="M748.29,787.84c0,30.52-216.76,21.69-216.76-8.84c-12.42-266.4-76.8-239.14-60.33-265.96
						c28.4-46.23,171.85-43.61,223.49-23.74c20.51,7.89,48.05,40.04,56.86,91.29c4.53,26.35-14.87,57.03-17.94,78.33
						C726.52,708.23,746.85,780.76,748.29,787.84z"/>
					<path class="st13" d="M613.17,510.28c-36.59,5.32-59.35-20.21-64.7-30.89l2.56-74.06l41.95-4.08
						c12.17,1.01,24.33,3.92,34.79,8.05l9.44,48.76l2.08,10.57C644.05,479.05,649.77,504.96,613.17,510.28z"/>
					<path class="st14" d="M565.15,422.1c6.58,10.13,34.13,36.06,72.07,35.97l-8.17-42.19L565.15,422.1z"/>
					<g>
						<g>
							<path class="st13" d="M657.99,324.55c3.29,14.59,10.07,46.62,8.96,61.37c-1.69,22.46-22.66,47.37-40.96,50.64
								c-21.18,2.16-49.72-4.15-65.22-17.47c-8.63-10.11-25.32-34.09-33.01-55.08c-16.03-43.79,14.91-82.18,54.16-91.05
								S647.73,279.06,657.99,324.55z"/>
							<path class="st17" d="M540.91,392.93c-8.19-14.41,2.69-20.24,14.61-9.06c-2.04-10.87-14.43-42.72-3.45-53.29
								c12.4-12.26,66.96-6.92,96.28-37.49c0,0-21.85-47.9-93.56-19.61C473.79,316.44,540.91,392.93,540.91,392.93z"/>
							
								<ellipse transform="matrix(0.7691 -0.6391 0.6391 0.7691 -123.1562 434.9216)" class="st13" cx="540.42" cy="387.93" rx="13.74" ry="17.68"/>
						</g>
					</g>
					<path class="st18" d="M486.08,498.06c24.37-2.92,48.26,114.74,31.52,146.99c-0.05,2.38-0.08,4.79-0.14,7.22
						c-0.18,9.18-0.41,18.66-0.71,28.24c-0.14,4.24-0.28,8.51-0.41,12.77c-0.32,9.41-0.69,18.87-1.06,28.25
						c-2.99,72.7-7.51,140.54-7.51,140.54h253.86c-2.03-49.86-9.3-101.03-14.28-140.54c-1.29-10.29-2.43-19.79-3.26-28.25
						c-0.46-4.58-0.83-8.84-1.09-12.77c-0.63-9.41-0.64-16.92,0.21-22.03c0.29-1.77,0.49-3.85,0.57-6.2
						c1.27-37.13-23.09-145-41.17-164.5c-25.35-11.75-53.62-8.88-53.62-8.88c1.78,52.93-19.27,100.42-19.27,100.42
						s-53.76-46.14-83.07-101.03C520.91,482.4,497.44,487.57,486.08,498.06z"/>
					<path class="st4" d="M743,680.5c-0.63-9.41-0.64-16.92,0.21-22.03c0.29-1.77,0.49-3.85,0.57-6.2H517.46
						c-0.18,9.18-0.41,18.66-0.71,28.24H743z"/>
					<path class="st4" d="M515.28,721.53h232.07c-1.29-10.29-2.43-19.79-3.26-28.25H516.34
						C516.02,702.69,515.65,712.15,515.28,721.53z"/>
					<path class="st19" d="M639.95,299.71c0,0,22.38,9.72,45.65,0.29c-3.53,15.9-116.03,39.46-130.46,33.28
						C540.71,327.1,609.33,292.94,639.95,299.71z"/>
					<path class="st20" d="M515.52,352.16c-3.12-22.87-6.68-81.6,45.33-96.7c46.22-13.42,79.38,14.36,95.04,32.66
						c6.78,1.04,25.04-3.91,28.26-0.13c0.75,2.25,0.04,6.61-18.52,13.98c0.06,0.11,0.1,0.18,0.1,0.18
						c-67.13,14.73-124.38,33.48-148.58,65.68c0,0-4.35,1.98-6.9,1.98C508.02,369.8,513.56,360.82,515.52,352.16z"/>
					<path class="st21" d="M607.89,303.25c0,0-21.13-49.83-71.22-36.52l-0.97-2.12c0,0,12.63-7.91,26.93-12.22
						c15.83-2.5,52.48,3.61,73.58,42.06C625.38,300.01,607.89,303.25,607.89,303.25z"/>
					<g>
						<path class="st22" d="M521.23,632.56l-31.09,86.52l134.1,85.06l-2.68,30.31c0,0-180.2-37.42-196.89-79.14
							c-16.69-41.72,39.1-220.09,39.1-220.09C482.79,489.58,515.7,594.49,521.23,632.56z"/>
						<path class="st22" d="M623.73,806.09l70.52,1.78c0,0-21.65,34.65-70.93,28.37C558.44,827.97,584.08,803.35,623.73,806.09z"/>
						<g>
							<path class="st23" d="M910.62,798.1v3.66c0,0.19-0.01,0.37-0.05,0.55c-0.38,2.37-3.23,4.21-6.67,4.21H595.57
								c-3.45,0-6.29-1.84-6.67-4.21c-0.03-0.18-0.05-0.37-0.05-0.55v-3.66H910.62z"/>
							<path class="st24" d="M910.57,802.31c-0.38,2.37-3.23,4.21-6.67,4.21H595.57c-3.45,0-6.29-1.84-6.67-4.21H910.57z"/>
							<g>
								<polygon class="st24" points="946.39,587.28 948.17,589.02 947.2,590.39 944.91,587.18 								"/>
								<path class="st23" d="M906.13,797.56H656c-4.26,0-7.14-3.46-6.42-7.72l33.01-196.65c0.72-4.26,4.75-7.72,9.02-7.72h250.13
									c4.26,0,7.14,3.46,6.42,7.72l-33.01,196.65C914.43,794.1,910.39,797.56,906.13,797.56z"/>
							</g>
							<path class="st24" d="M907.96,799.36H657.84c-4.26,0-7.14-3.46-6.42-7.72l33.01-196.65c0.72-4.26,4.75-7.72,9.02-7.72h250.13
								c4.26,0,7.14,3.46,6.42,7.72l-33.01,196.65C916.26,795.9,912.23,799.36,907.96,799.36z"/>
							
								<ellipse transform="matrix(0.1144 -0.9934 0.9934 0.1144 17.4809 1416.884)" class="st2" cx="803.45" cy="698.64" rx="34.29" ry="33.02"/>
						</g>
					</g>
					<path class="st15" d="M519.2,644.05l-86.38-42.71c0,0,23.98-85.21,51.24-101.5c13.3,7.98,26.52,26.98,33.78,59.94
						C524.12,588.24,524.23,617.34,519.2,644.05z"/>
					<path class="st17" d="M629.28,379.5c0.06,0,0.11-0.01,0.17-0.02c0.38-0.08,9.24-1.9,12.06-6.59
						c2.79-4.64-15.63-23.12-21.34-28.67c-0.34-0.33-0.89-0.32-1.22,0.02c-0.33,0.34-0.33,0.89,0.02,1.22
						c11.24,10.92,22.48,24.18,21.07,26.54c-2.42,4.04-10.83,5.77-10.91,5.78c-0.47,0.09-0.77,0.55-0.68,1.02
						C628.51,379.22,628.87,379.5,629.28,379.5z"/>
					<path class="st17" d="M614.86,399.81c14.74,0,27.14-5.05,27.34-5.14c0.44-0.18,0.65-0.69,0.47-1.13
						c-0.18-0.44-0.69-0.65-1.13-0.47c-0.31,0.13-31.62,12.87-53.27-2.77c-0.39-0.28-0.93-0.19-1.21,0.19
						c-0.28,0.39-0.19,0.93,0.19,1.21C595.8,397.89,605.78,399.81,614.86,399.81z"/>
					<path class="st19" d="M636.72,337.25c0.79,3.42,2.99,5.84,4.92,5.4s2.85-3.58,2.06-7c-0.79-3.42-2.99-5.84-4.92-5.4
						C636.86,330.69,635.93,333.83,636.72,337.25z"/>
					<path class="st19" d="M581.05,352.47c1.2,3.66,3.84,6.08,5.9,5.41c2.06-0.67,2.76-4.19,1.56-7.85c-1.2-3.66-3.84-6.08-5.9-5.41
						C580.55,345.29,579.85,348.81,581.05,352.47z"/>
				</g>
				<g class="st12">
					<g>
						
							<ellipse transform="matrix(0.2578 -0.9662 0.9662 0.2578 385.8 1111.7887)" class="st5" cx="916.56" cy="304.78" rx="8.56" ry="8.66"/>
						<g>
							<path class="st5" d="M955.51,285.16L955.51,285.16c1.25-0.83,1.62-2.5,0.8-3.76c-14.69-22.5-43.33-29.43-66.65-16.13
								c-1.3,0.74-1.74,2.4-1,3.71l0,0c0.75,1.33,2.45,1.84,3.79,1.09c20.73-11.58,46.03-5.46,59.19,14.33
								C952.49,285.68,954.23,286,955.51,285.16z"/>
							<path class="st5" d="M945.87,291.52l0.02-0.01c1.28-0.85,1.61-2.57,0.75-3.84c-11.52-16.9-33.25-22.16-51.2-12.41
								c-1.36,0.74-1.85,2.42-1.09,3.77l0.01,0.02c0.74,1.31,2.4,1.81,3.73,1.1c15.43-8.18,33.97-3.69,43.96,10.65
								C942.91,292.04,944.62,292.35,945.87,291.52z"/>
							<path class="st5" d="M936.53,297.69l0.03-0.02c1.3-0.86,1.64-2.62,0.72-3.88c-8.43-11.55-23.52-15.21-36.29-8.81
								c-1.4,0.7-1.9,2.43-1.13,3.79l0.02,0.03c0.73,1.28,2.33,1.77,3.67,1.13c10.29-4.94,22.31-2.02,29.21,7.09
								C933.63,298.21,935.29,298.51,936.53,297.69z"/>
						</g>
					</g>
				</g>
			</g>
			<path class="st11" d="M405.55,819.5v142.77c0,6.14-4.98,11.12-11.12,11.12H255.58c-9.08-16.39-17.2-33.5-24.26-51.31v-38.79
				l34.23-10.4c-6.5-21.4-11.1-42.98-13.89-64.52h142.77C400.58,808.38,405.55,813.36,405.55,819.5z"/>
			<path class="st11" d="M361.39,584.98v143.65c0,9.78-7.93,17.71-17.72,17.71h-95.11c0.28-9.5,0.91-18.95,1.87-28.33l-16.09-1.65
				l-31.76-3.24l-0.41-0.06c5.16-50.96,19-100.26,40.73-145.79h100.76C353.46,567.27,361.39,575.2,361.39,584.98z"/>
		</g>
		<g>
			<g>
				<path class="st5" d="M310.5,725.47H117.04c-9.79,0-17.72-7.93-17.72-17.72V564.1c0-9.79,7.93-17.72,17.72-17.72H310.5
					c9.79,0,17.72,7.93,17.72,17.72v143.65C328.22,717.53,320.29,725.47,310.5,725.47z"/>
				<path class="st4" d="M302.45,597.56H127.23c-0.23,0-0.42-0.19-0.42-0.42c0-0.23,0.19-0.42,0.42-0.42h175.22
					c0.23,0,0.42,0.19,0.42,0.42C302.86,597.38,302.68,597.56,302.45,597.56z"/>
				<path class="st4" d="M302.45,657.6H127.23c-0.23,0-0.42-0.19-0.42-0.42c0-0.23,0.19-0.42,0.42-0.42h175.22
					c0.23,0,0.42,0.19,0.42,0.42C302.86,657.41,302.68,657.6,302.45,657.6z"/>
				<path class="st4" d="M302.45,628.36H127.23c-0.23,0-0.42-0.19-0.42-0.42c0-0.23,0.19-0.42,0.42-0.42h175.22
					c0.23,0,0.42,0.19,0.42,0.42C302.86,628.17,302.68,628.36,302.45,628.36z"/>
				<path class="st25" d="M302.45,688.03H126.4l-0.36-107.06c0-0.46,0.37-0.84,0.83-0.84c0,0,0,0,0,0c0.46,0,0.83,0.37,0.83,0.83
					l0.35,105.4h174.39c0.46,0,0.83,0.37,0.83,0.83C303.28,687.66,302.91,688.03,302.45,688.03z"/>
				<path class="st25" d="M273.38,608.17l-64.43,61.92l-33.2-29.37l-49.09,45.86c-0.34,0.31-0.35,0.84-0.04,1.18
					c0.16,0.18,0.39,0.26,0.61,0.26c0.2,0,0.41-0.07,0.57-0.22l47.98-44.83L209,672.36l64.38-61.88V608.17z"/>
				<path class="st25" d="M180.24,641.96c0,2.47-2,4.47-4.47,4.47c-2.47,0-4.47-2-4.47-4.47s2-4.47,4.47-4.47
					C178.24,637.49,180.24,639.49,180.24,641.96z"/>
				<path class="st25" d="M213.98,670.8c0,2.47-2,4.47-4.47,4.47c-2.47,0-4.47-2-4.47-4.47s2-4.47,4.47-4.47
					C211.98,666.33,213.98,668.33,213.98,670.8z"/>
				<path class="st25" d="M278.38,608.64c0,2.47-2,4.47-4.47,4.47c-2.47,0-4.47-2-4.47-4.47c0-2.47,2-4.47,4.47-4.47
					C276.37,604.17,278.38,606.17,278.38,608.64z"/>
			</g>
			<g>
				<path class="st7" d="M219.54,954.15h151.99c6.14,0,11.12-4.98,11.12-11.12V800.26c0-6.14-4.98-11.12-11.12-11.12H219.54
					c-6.14,0-11.12,4.98-11.12,11.12v142.76C208.42,949.17,213.4,954.15,219.54,954.15z"/>
				<rect x="334.97" y="878.97" class="st26" width="16.48" height="47.61"/>
				<rect x="312.01" y="871.79" class="st26" width="16.48" height="54.79"/>
				<rect x="289.04" y="857.23" class="st26" width="16.48" height="69.35"/>
				<rect x="266.07" y="847.06" class="st26" width="16.48" height="79.52"/>
				<rect x="243.1" y="825.12" class="st26" width="16.48" height="101.46"/>
				<path class="st27" d="M360.67,928.37H227.34c-0.61,0-1.11-0.5-1.11-1.11c0-0.61,0.5-1.11,1.11-1.11h133.32
					c0.61,0,1.11,0.5,1.11,1.11C361.78,927.87,361.28,928.37,360.67,928.37z"/>
			</g>
			<g>
				<path class="st5" d="M151.97,860.48H52.32c-5.23,0-9.47-4.24-9.47-9.47v-87.95c0-5.23,4.24-9.47,9.47-9.47h99.66
					c5.23,0,9.47,4.24,9.47,9.47v87.95C161.44,856.25,157.2,860.48,151.97,860.48z"/>
				<g>
					<g>
						<path class="st7" d="M75.06,801.55H62.81c-0.96,0-1.74-0.78-1.74-1.74l0,0c0-0.96,0.78-1.74,1.74-1.74h12.25
							c0.96,0,1.74,0.78,1.74,1.74l0,0C76.8,800.78,76.02,801.55,75.06,801.55z"/>
						<path class="st7" d="M75.06,807.86H62.81c-0.96,0-1.74-0.78-1.74-1.74l0,0c0-0.96,0.78-1.74,1.74-1.74h12.25
							c0.96,0,1.74,0.78,1.74,1.74l0,0C76.8,807.08,76.02,807.86,75.06,807.86z"/>
						<path class="st7" d="M75.06,814.17H62.81c-0.96,0-1.74-0.78-1.74-1.74l0,0c0-0.96,0.78-1.74,1.74-1.74h12.25
							c0.96,0,1.74,0.78,1.74,1.74l0,0C76.8,813.39,76.02,814.17,75.06,814.17z"/>
						<path class="st7" d="M75.06,820.47H62.81c-0.96,0-1.74-0.78-1.74-1.74l0,0c0-0.96,0.78-1.74,1.74-1.74h12.25
							c0.96,0,1.74,0.78,1.74,1.74l0,0C76.8,819.69,76.02,820.47,75.06,820.47z"/>
					</g>
					<g>
						<path class="st28" d="M110.85,783.27c-0.01,0-0.03,0-0.04,0c-14.36,0-26.01,11.64-26.01,26.01
							c0,14.36,11.64,26.01,26.01,26.01c4.35,0,8.46-1.07,12.06-2.96l-12.02-23.05V783.27z"/>
						<path class="st29" d="M122.87,832.32c8.29-4.35,13.95-13.04,13.95-23.05h-25.97L122.87,832.32z"/>
						<path class="st4" d="M110.85,783.27v26.01h25.97C136.82,794.93,125.19,783.29,110.85,783.27z"/>
					</g>
				</g>
			</g>
		</g>
		<g>
			<g>
				<path class="st30" d="M1476.93,371.47l-6.65-1l-16.29-2.32c3.45-24.16,2.24-49.38-4.31-74.48l22.54-5.88
					c-1.95-7.48-4.28-14.77-6.96-21.85c-7.23-19.1-17.04-36.67-28.91-52.34l-10.26,7.7l-8.34,6.27
					c-15.15-20.3-34.2-37.03-55.66-49.68l11.74-20.03c-23.69-13.88-50.12-23.21-77.77-27.13l-3.29,23.02
					c-24.16-3.45-49.38-2.24-74.49,4.31l-5.88-22.54c-27.67,7.22-52.71,19.6-74.18,35.88l13.98,18.6
					c-20.31,15.14-37.04,34.2-49.68,55.65l-20.03-11.74c-13.97,23.72-23.22,50.12-27.13,77.77l0.19,0.04l15.16,2.16l7.67,1.09
					c-3.45,24.16-2.23,49.47,4.3,74.49l-22.54,5.88c7.22,27.67,19.58,52.63,35.77,74.12l18.6-13.98
					c15.24,20.28,34.31,37.1,55.76,49.74l-11.73,20.03c23.69,13.89,50.03,23.25,77.68,27.15l0.76-5.12l2.52-17.9
					c24.17,3.45,49.47,2.23,74.57-4.33l5.88,22.54c27.67-7.22,52.63-19.58,74.1-35.85l-13.98-18.61
					c20.3-15.14,37.12-34.22,49.76-55.67l20.03,11.73c13.88-23.68,23.21-50.11,27.13-77.77L1476.93,371.47z M1292.2,441.21
					c-54.98,14.36-111.19-18.58-125.57-73.65c-14.36-54.99,18.58-111.19,73.56-125.55c50.46-13.17,101.87,13.37,121.17,60.2
					c1.77,4.29,3.27,8.74,4.47,13.35c2.48,9.53,3.56,19.08,3.34,28.45C1368.16,388.82,1337.75,429.33,1292.2,441.21z"/>
				<path class="st31" d="M1369.18,344.01c0.22-9.37-0.85-18.93-3.34-28.45c-1.2-4.61-2.7-9.06-4.47-13.35l64.72-80.9l10.26-7.7
					c11.87,15.67,21.67,33.24,28.91,52.34L1369.18,344.01z"/>
			</g>
			<g>
				<defs>
					<path id="SVGID_3_" d="M1547.53-99.94H898.25l-3.72,214.98l272.35,200.18c-2.29,8.51-3.52,17.45-3.52,26.69
						c0,56.51,45.81,102.32,102.32,102.32c43.03,0,79.85-26.56,94.97-64.18h186.88V-99.94z"/>
				</defs>
				<clipPath id="SVGID_4_">
					<use xlink:href="#SVGID_3_"  style="overflow:visible;"/>
				</clipPath>
				<g id="Arm_02_2_" class="st32">
					<g>
						<path class="st6" d="M1238.82,299.02l2.5-2.03c-21.98-27.03-30.94-49.57-27.37-68.91c4.86-26.33,32.55-42.3,56.98-56.38
							c13.71-7.91,26.67-15.38,33.99-23.85c5.49-6.36,7.77-13.24,6.76-20.46c-2.28-16.38-20.54-28.58-21.32-29.1l-1.77,2.69
							c0.18,0.12,17.83,11.93,19.9,26.86c0.87,6.26-1.16,12.28-6.01,17.9c-6.96,8.06-19.68,15.4-33.16,23.16
							c-25.04,14.43-53.41,30.79-58.54,58.59C1207.03,247.82,1216.2,271.22,1238.82,299.02z"/>
						<path class="st6" d="M1151.31,424.93l10.86-6.95c-17.85-27.91-17.84-53.24,0.01-73.24c29.68-33.24,89.95-6.97,90.56-6.7
							l5.26-11.77c-0.7-0.31-17.3-7.66-38.35-10.33c-28.82-3.66-52.01,3.33-67.08,20.21
							C1130.77,360.57,1130.32,392.1,1151.31,424.93z"/>
						<g>
							<g>
								
									<rect x="1064.5" y="-12.36" transform="matrix(-0.7904 -0.6126 0.6126 -0.7904 1902.2856 724.5485)" class="st30" width="21.22" height="98.32"/>
								<path class="st7" d="M1053.2,44.05l19.66,15.24c1.28,5.56,0.14,11.63-3.64,16.48l-11.06,14.19l-31.02-24.14l11.06-14.19
									C1041.96,46.8,1047.53,44.2,1053.2,44.05z"/>
								<g>
									
										<rect x="1017.62" y="77.18" transform="matrix(-0.7904 -0.6126 0.6126 -0.7904 1814.4733 780.9054)" class="st6" width="46.46" height="5.64"/>
								</g>
							</g>
							<g>
								<g>
									<polygon class="st30" points="1005.66,178.92 1011.23,184.72 1064.89,152.42 1049.69,136.6 									"/>
									<polygon class="st30" points="951.92,137.66 945,133.55 964.27,73.96 983.13,85.17 									"/>
									<path class="st7" d="M1006.52,83.69l36.96,28.65c4.5,3.49,11.04,2.66,14.53-1.84v0c3.49-4.5,2.66-11.04-1.84-14.53
										l-36.96-28.65c-4.5-3.49-11.04-2.66-14.53,1.84l0,0C1001.19,73.66,1002.02,80.2,1006.52,83.69z"/>
									<g>
										<path class="st7" d="M1049.88,95.35c4.74-0.82,9.28,2.28,10.23,7l7.98,39.59c1.92,9.06-4.87,17.63-14.14,17.83l0,0
											c-8.81,0.19-15.82-7.33-15.02-16.1l3.62-40.36C1042.91,99.3,1045.92,96.04,1049.88,95.35L1049.88,95.35z"/>
										<g>
											<g>
												<path class="st6" d="M1055.25,138.99c-3.74-1.22-7.53,1.55-7.48,5.48c0.03,2.38,1.61,4.54,3.87,5.29
													c3.74,1.22,7.53-1.55,7.48-5.48C1059.1,141.9,1057.52,139.74,1055.25,138.99z"/>
											</g>
										</g>
										<g>
											<g>
												<path class="st6" d="M1052.78,100.89c-2.87-0.94-5.78,1.19-5.75,4.21c0.02,1.83,1.24,3.49,2.98,4.06
													c2.87,0.94,5.78-1.19,5.75-4.21C1055.73,103.12,1054.52,101.46,1052.78,100.89z"/>
											</g>
										</g>
									</g>
									<g>
										<path class="st7" d="M1023.71,72.4c-0.48-4.79-4.68-8.33-9.48-7.98l-40.28,2.93c-9.24,0.58-15.68,9.43-13.39,18.4l0,0
											c2.18,8.53,11.3,13.27,19.54,10.16l37.91-14.32C1021.77,80.17,1024.11,76.4,1023.71,72.4L1023.71,72.4z"/>
										<g>
											<g>
												<path class="st6" d="M1016.7,70.16c-2.42-1.81-5.86-0.73-6.8,2.14c-0.57,1.74,0.05,3.7,1.51,4.8
													c2.42,1.81,5.86,0.73,6.8-2.14C1018.78,73.22,1018.17,71.26,1016.7,70.16z"/>
											</g>
										</g>
										<g>
											<g>
												<path class="st6" d="M979.01,77.65c-3.14-2.36-7.63-0.95-8.85,2.79c-0.74,2.26,0.06,4.82,1.97,6.25
													c3.14,2.36,7.63,0.95,8.85-2.79C981.72,81.64,980.91,79.08,979.01,77.65z"/>
											</g>
										</g>
									</g>
								</g>
							</g>
						</g>
						<g>
							
								<rect x="1096.65" y="-17.26" transform="matrix(-0.9911 0.1328 -0.1328 -0.9911 2260.8169 -160.1579)" class="st30" width="78.19" height="25.16"/>
							<path class="st7" d="M1168.72,18.68l50.21-6.73c15.07-2.02,25.66-15.88,23.64-30.95v0c-2.02-15.07-15.88-25.66-30.95-23.64
								l-50.21,6.73L1168.72,18.68z"/>
							<path class="st7" d="M1103.69,27.4l35.38-4.74l-7.31-54.59l-35.38,4.74c-15.07,2.02-25.66,15.88-23.64,30.95v0
								C1074.76,18.84,1088.62,29.42,1103.69,27.4z"/>
							<path class="st30" d="M1085.11-3.8c2.09-7.73,10.07-12.31,17.79-10.23c7.73,2.09,12.31,10.07,10.23,17.79
								c-2.09,7.73-10.07,12.31-17.79,10.23C1087.62,11.91,1083.03,3.93,1085.11-3.8z M1091.01-2.2c-1.21,4.47,1.45,9.09,5.92,10.3
								c4.47,1.21,9.09-1.45,10.3-5.92c1.21-4.47-1.45-9.09-5.92-10.3C1096.84-9.33,1092.22-6.68,1091.01-2.2z"/>
						</g>
						<g>
							<path class="st6" d="M1426.36,164.39c0.63-0.68,15.49-16.96,24.73-40.04c12.62-31.52,8.59-60.33-11.67-83.32
								c-14.79-16.79-33.85-26.13-55.11-27.02c-24.52-1.02-47.55,9.65-55.39,17.18l8.93,9.3c5.23-5.02,24.67-14.48,45.92-13.6
								c17.91,0.75,33.38,8.37,45.97,22.66c17.06,19.36,20.22,42.92,9.37,70c-8.37,20.91-22.1,35.95-22.24,36.1L1426.36,164.39z"/>
							
								<rect x="1315.44" y="30.91" transform="matrix(-0.6836 -0.7298 0.7298 -0.6836 2218.7363 1033.5082)" class="st6" width="35.89" height="9.85"/>
							<g>
								
									<rect x="1282.2" y="84.7" transform="matrix(-0.7631 0.6463 -0.6463 -0.7631 2391.73 -690.5072)" class="st6" width="80.45" height="16.79"/>
								<path class="st6" d="M1406.9,192.65L1406.9,192.65c9.23-7.84,10.34-21.68,2.5-30.91l-86.88-102.26l-33.41,28.41
									l86.88,102.26C1383.83,199.37,1397.67,200.49,1406.9,192.65z"/>
								<g>
									<path class="st7" d="M1288.28,124.16L1197.71,2.24c-11.64-15.67-9.08-37.69,5.85-50.27l0,0
										c14.92-12.58,37.06-11.38,50.53,2.75l104.59,109.82L1288.28,124.16z"/>
									<path class="st6" d="M1212.2-37.78c9.99-8.42,24.97-7.14,33.39,2.85s7.14,24.97-2.85,33.39
										c-9.99,8.42-24.97,7.14-33.39-2.85C1200.93-14.38,1202.2-29.36,1212.2-37.78z M1218.62-30.16
										c-5.79,4.88-6.52,13.55-1.65,19.33c4.88,5.79,13.55,6.52,19.33,1.65c5.79-4.88,6.52-13.55,1.65-19.33
										C1233.08-34.29,1224.41-35.03,1218.62-30.16z"/>
								</g>
							</g>
						</g>
						<g>
							<path class="st7" d="M1227.48,378.72L1227.48,378.72c29.7,25.75,74.65,22.55,100.4-7.14l116.89-134.8
								c25.75-29.7,22.55-74.65-7.14-100.4v0c-29.7-25.75-74.65-22.55-100.4,7.14l-116.89,134.8
								C1194.59,308.02,1197.79,352.97,1227.48,378.72z"/>
							<path class="st6" d="M1365.43,162.44c-13.56,15.63-11.88,39.3,3.76,52.86c15.64,13.56,39.3,11.87,52.86-3.76
								c13.56-15.64,11.88-39.3-3.76-52.86C1402.66,145.12,1378.99,146.81,1365.43,162.44z M1376.81,172.31
								c8.11-9.35,22.26-10.36,31.61-2.25c9.35,8.11,10.36,22.26,2.25,31.61c-8.11,9.35-22.26,10.36-31.61,2.25
								C1369.71,195.82,1368.7,181.66,1376.81,172.31z"/>
						</g>
						<g>
							<g>
								<path class="st6" d="M1201.82,391.76h129.34v-55.48c0-35.72-28.95-64.67-64.67-64.67h0c-35.72,0-64.67,28.95-64.67,64.67
									V391.76z"/>
							</g>
						</g>
						<g>
							
								<rect x="1158.29" y="385.24" transform="matrix(-1 -1.224647e-16 1.224647e-16 -1 2526.3726 819.0637)" class="st6" width="209.79" height="48.58"/>
							<g>
								<path class="st7" d="M1123.39,453.01h293.86c0.16,1.35,0.24,2.72,0.24,4.11v141.05h-294.33V457.12
									C1123.15,455.73,1123.23,454.36,1123.39,453.01z"/>
								<path class="st6" d="M1187.59,408.62h165.68c35.45,9.63,61.39,26.22,64.09,49.75h-293.86
									C1126.2,434.84,1152.14,418.26,1187.59,408.62z"/>
							</g>
							
								<rect x="1114.41" y="555.26" transform="matrix(-1 -1.224647e-16 1.224647e-16 -1 2538.6594 1153.4457)" class="st6" width="309.85" height="42.92"/>
							<g>
								<path class="st6" d="M1298.44,493.8L1298.44,493.8c4.37,0,7.92-3.54,7.92-7.92v0c0-4.37-3.54-7.92-7.92-7.92l0,0
									c-4.37,0-7.92,3.54-7.92,7.92v0C1290.52,490.26,1294.07,493.8,1298.44,493.8z"/>
								<path class="st6" d="M1271.61,493.8L1271.61,493.8c4.37,0,7.92-3.54,7.92-7.92v0c0-4.37-3.54-7.92-7.92-7.92l0,0
									c-4.37,0-7.92,3.54-7.92,7.92v0C1263.69,490.26,1267.23,493.8,1271.61,493.8z"/>
								<path class="st6" d="M1244.77,493.8L1244.77,493.8c4.37,0,7.92-3.54,7.92-7.92v0c0-4.37-3.54-7.92-7.92-7.92l0,0
									c-4.37,0-7.92,3.54-7.92,7.92v0C1236.86,490.26,1240.4,493.8,1244.77,493.8z"/>
								<path class="st6" d="M1217.94,493.8L1217.94,493.8c4.37,0,7.92-3.54,7.92-7.92v0c0-4.37-3.54-7.92-7.92-7.92l0,0
									c-4.37,0-7.92,3.54-7.92,7.92v0C1210.02,490.26,1213.57,493.8,1217.94,493.8z"/>
							</g>
							<path class="st6" d="M1337.06,504.82h47.47v43.59h-47.47V504.82z M1383.8,505.56h-46v42.12h46V505.56z"/>
						</g>
						<g>
							<g>
								<path class="st7" d="M1235.18,317.94c-2.66,4.05-4.4,8.45-5.26,12.93l3.87,0.75c-0.82,4.22-0.77,8.53,0.08,12.67l-3.85,0.8
									c0.95,4.56,2.76,8.94,5.41,12.86l0.73-0.49l2.54-1.72c2.31,3.43,5.34,6.48,9.02,8.89l-2.17,3.3
									c4.05,2.66,8.45,4.4,12.93,5.25l0.75-3.87c4.21,0.83,8.53,0.78,12.66-0.07l0.8,3.85c4.56-0.95,8.95-2.78,12.87-5.43
									l-0.01-0.01l-0.63-0.95l-1.56-2.31c3.43-2.31,6.47-5.33,8.88-9.01l3.3,2.17c2.66-4.05,4.4-8.46,5.26-12.95l-3.87-0.75
									c0.83-4.21,0.77-8.51-0.08-12.65l3.85-0.8c-0.95-4.56-2.78-8.95-5.43-12.87l-3.27,2.2c-2.31-3.43-5.33-6.47-9.01-8.88
									l2.17-3.3c-4.05-2.66-8.46-4.4-12.95-5.26l-0.75,3.87c-4.21-0.83-8.51-0.77-12.65,0.08l-0.8-3.85
									c-4.57,0.94-8.95,2.78-12.87,5.43l0.02,0.03l1.45,2.15l0.73,1.09c-3.43,2.31-6.48,5.34-8.88,9.01L1235.18,317.94z
									 M1250.78,328.18c5.29-8.06,16.1-10.3,24.16-5.02c8.07,5.3,10.32,16.11,5.03,24.17c-5.3,8.07-16.11,10.32-24.18,5.02
									C1247.73,347.06,1245.48,336.25,1250.78,328.18z"/>
							</g>
							<polygon class="st7" points="1259.11,328.55 1259.11,347.47 1276.61,337.43 							"/>
							<g>
								<path class="st7" d="M1239.23,378.05c0.64-0.92,1.27-1.84,1.88-2.77c-11.54-7.85-19.12-21.09-19.13-36.03l4.57,0.05
									l-6.29-9.48l-5.74,9.36l4.11,0.04C1218.63,355.31,1226.8,369.58,1239.23,378.05z"/>
								<path class="st7" d="M1311.1,337.87c0-12.36-4.74-24.01-13.4-32.85c-2.37-2.42-4.96-4.54-7.72-6.36
									c-0.55,0.98-1.09,1.96-1.62,2.94c2.48,1.66,4.81,3.58,6.95,5.77c8.04,8.2,12.44,19.01,12.44,30.47l-4.57-0.05l6.29,9.48
									l5.74-9.36L1311.1,337.87z"/>
							</g>
						</g>
					</g>
				</g>
			</g>
		</g>
	</g>
</g>
</svg>
