<?xml version="1.0" encoding="utf-8"?>
<!-- Generator: Adobe Illustrator 25.2.1, SVG Export Plug-In . SVG Version: 6.00 Build 0)  -->
<svg version="1.1" xmlns="http://www.w3.org/2000/svg" xmlns:xlink="http://www.w3.org/1999/xlink" x="0px" y="0px"
	 viewBox="0 0 215.4 182.24" style="enable-background:new 0 0 215.4 182.24;" xml:space="preserve">
<style type="text/css">
	.st0{fill:#009DB3;}
	.st1{fill:#00D0CE;}
	.st2{fill:#FFC900;}
	.st3{fill:#FFE15C;}
</style>
<g id="Background">
</g>
<g id="Objects">
	<path class="st0" d="M30.71,113.49c0,0,1.67-6.91-4.09-12.88c-5.78-5.96-13-5.97-13-5.97s-1.76,8.13,3.88,13.94
		C23.12,114.4,30.71,113.49,30.71,113.49z"/>
	<path class="st0" d="M43.39,112.18c0,0,6.7-3.68,7.89-11.68c1.19-8-4.97-13.58-4.97-13.58s-5.87,4.21-7.09,12.42
		C38,107.54,43.39,112.18,43.39,112.18z"/>
	<path class="st0" d="M53.59,132.27c0,0,6.16-4.53,6.31-12.61c0.13-8.09-6.71-12.82-6.71-12.82s-5.26,4.94-5.4,13.24
		C47.65,128.37,53.59,132.27,53.59,132.27z"/>
	<path class="st0" d="M68.77,143.83c0,0,5.7-5.09,5.08-13.15c-0.63-8.07-7.87-12.14-7.87-12.14s-4.79,5.41-4.14,13.69
		C62.47,140.51,68.77,143.83,68.77,143.83z"/>
	<path class="st0" d="M87.81,153.79c0,0,4.01-6.52,1.09-14.06c-2.92-7.54-11.04-9.36-11.04-9.36s-3.02,6.56-0.03,14.3
		C80.83,152.42,87.81,153.79,87.81,153.79z"/>
	<path class="st0" d="M33.44,95.79c0,0,5.22-4.82,3.73-12.98c-1.49-8.16-7.5-12.18-7.5-12.18s-5.97,5.79-4.51,13.75
		C26.61,92.34,33.44,95.79,33.44,95.79z"/>
	<path class="st0" d="M37.72,129.12c0,0-0.44-7.1-7.7-11.09c-7.28-4-14.18-1.87-14.18-1.87s0.72,8.28,7.8,12.18
		C30.74,132.23,37.72,129.12,37.72,129.12z"/>
	<path class="st0" d="M50.02,142.86c0,0-2.01-6.82-9.98-9.1c-7.98-2.28-14.23,1.32-14.23,1.32s2.54,7.92,10.32,10.14
		C43.91,147.45,50.02,142.86,50.02,142.86z"/>
	<path class="st0" d="M63.73,152.62c0,0-3.97-5.9-12.27-5.65c-8.3,0.24-13.17,5.57-13.17,5.57s4.82,6.78,12.89,6.55
		C59.29,158.84,63.73,152.62,63.73,152.62z"/>
	<path class="st0" d="M69.6,156.6c-8.21,1.23-12.42,7.11-12.42,7.11s5.61,6.15,13.59,4.95c8-1.2,11.67-7.91,11.67-7.91
		S77.8,155.38,69.6,156.6z"/>
	<path class="st1" d="M36.15,99.83L32.2,99.7c-0.02,0.43-0.79,43.33,64.04,62.35l1.11-3.8C35.63,140.14,36.1,101.47,36.15,99.83z"/>
	<path class="st0" d="M180.5,113.49c0,0,7.6,0.91,13.21-4.9c5.63-5.81,3.88-13.94,3.88-13.94s-7.22,0.01-13,5.97
		C178.82,106.58,180.5,113.49,180.5,113.49z"/>
	<path class="st0" d="M159.93,100.49c1.19,8,7.89,11.68,7.89,11.68s5.39-4.64,4.17-12.85c-1.22-8.21-7.09-12.42-7.09-12.42
		S158.74,92.5,159.93,100.49z"/>
	<path class="st0" d="M151.32,119.66c0.14,8.08,6.31,12.61,6.31,12.61s5.95-3.9,5.81-12.19c-0.14-8.3-5.4-13.24-5.4-13.24
		S151.19,111.57,151.32,119.66z"/>
	<path class="st0" d="M137.36,130.68c-0.62,8.06,5.09,13.15,5.09,13.15s6.29-3.32,6.93-11.59c0.64-8.27-4.14-13.69-4.14-13.69
		S137.99,122.62,137.36,130.68z"/>
	<path class="st0" d="M122.31,139.73c-2.92,7.54,1.09,14.06,1.09,14.06s6.98-1.37,9.97-9.11c2.99-7.74-0.03-14.3-0.03-14.3
		S125.23,132.19,122.31,139.73z"/>
	<path class="st0" d="M186.06,84.39c1.46-7.96-4.51-13.75-4.51-13.75s-6.01,4.02-7.5,12.18c-1.49,8.16,3.73,12.98,3.73,12.98
		S184.61,92.34,186.06,84.39z"/>
	<path class="st0" d="M181.19,118.03c-7.27,4-7.71,11.09-7.71,11.09s6.99,3.11,14.08-0.79c7.08-3.89,7.8-12.18,7.8-12.18
		S188.47,114.03,181.19,118.03z"/>
	<path class="st0" d="M171.17,133.76c-7.98,2.28-9.98,9.1-9.98,9.1s6.12,4.59,13.9,2.36c7.78-2.22,10.32-10.14,10.32-10.14
		S179.15,131.48,171.17,133.76z"/>
	<path class="st0" d="M159.74,146.97c-8.29-0.24-12.27,5.65-12.27,5.65s4.44,6.22,12.54,6.46c8.07,0.24,12.89-6.55,12.89-6.55
		S168.04,147.21,159.74,146.97z"/>
	<path class="st0" d="M141.61,156.6c-8.2-1.23-12.85,4.15-12.85,4.15s3.67,6.71,11.67,7.91c7.99,1.2,13.59-4.95,13.59-4.95
		S149.82,157.84,141.61,156.6z"/>
	<path class="st1" d="M179.02,99.7l-3.95,0.13c0.05,1.64,0.52,40.31-61.19,58.42l1.11,3.8C179.81,143.03,179.04,100.13,179.02,99.7z
		"/>
	<path class="st2" d="M130.92,114h-5.43c0-5.08,0-11.79,0-13.35c-9.88-2.73-11.4-19.96-11.58-22.49h3.33V65.23
		c2.25-0.92,5.78-3.19,9.21-7.21l5.97,6.65l6.57-5.9l-5.15-5.75c5.68,1.89,14.99,3.65,22.24-1.46c8.08-5.7,10.88-17.91,8.31-36.29
		l-0.53-3.81l-58.25,0.05l-58.25-0.05l-0.53,3.81c-2.57,18.38,0.23,30.59,8.31,36.29c7.26,5.11,16.56,3.35,22.24,1.46l-5.15,5.75
		l6.57,5.9l5.97-6.65c3.43,4.01,6.96,6.28,9.21,7.21v12.94h3.33c-0.18,2.53-1.7,19.76-11.58,22.49c0,1.55,0,8.26,0,13.35H80.3v6.44
		h25.24h0.13h25.24L130.92,114L130.92,114z M136.33,20.28l19.76,0.02c1.27,12.47-0.48,20.75-5.09,24.02
		c-4.84,3.43-12.85,1.12-16.86-0.61C136.04,37.54,137.01,29.79,136.33,20.28z M60.21,44.31c-4.61-3.27-6.35-11.55-5.09-24.02
		l19.76-0.02c-0.68,9.51,0.29,17.26,2.19,23.42C73.06,45.43,65.05,47.74,60.21,44.31z"/>
	<path class="st3" d="M85.73,100.66c0,1.55,0,8.26,0,13.35H80.3v6.44h25.13V11.5l-58.07-0.05l-0.53,3.81
		c-2.57,18.38,0.23,30.59,8.31,36.29c7.26,5.11,16.56,3.35,22.24,1.46l-5.15,5.75l6.57,5.9l5.97-6.65c3.43,4.01,6.96,6.28,9.21,7.21
		v12.94h3.33C97.13,80.69,95.61,97.93,85.73,100.66z M60.21,44.31c-4.62-3.27-6.35-11.55-5.09-24.02l19.76-0.02
		c-0.68,9.51,0.29,17.26,2.19,23.42C73.06,45.43,65.05,47.74,60.21,44.31z"/>
</g>
</svg>
